<?xml version="1.0" encoding="UTF-8"?>
<!--Generator: Apple Native CoreSVG 149-->
<!DOCTYPE svg
PUBLIC "-//W3C//DTD SVG 1.1//EN"
       "http://www.w3.org/Graphics/SVG/1.1/DTD/svg11.dtd">
<svg version="1.1" xmlns="http://www.w3.org/2000/svg" xmlns:xlink="http://www.w3.org/1999/xlink" width="3300" height="2200">
 <!--glyph: "uni100184.medium", point size: 100.000000, font version: "Version 16.0d18e1", template writer version: "8"-->
 <g id="Notes">
  <rect height="2200" id="artboard" style="fill:white;opacity:1" width="3300" x="0" y="0"/>
  <line id="" style="fill:none;stroke:black;opacity:1;stroke-width:0.5;" x1="263" x2="3036" y1="292" y2="292"/>
  <text style="stroke:none;fill:black;font-family:-apple-system,&quot;SF Pro Display&quot;,&quot;SF Pro Text&quot;,Helvetica,sans-serif;font-weight:bold;" transform="matrix(1 0 0 1 263 322)">Weight/Scale Variations</text>
  <text style="stroke:none;fill:black;font-family:-apple-system,&quot;SF Pro Display&quot;,&quot;SF Pro Text&quot;,Helvetica,sans-serif;text-anchor:middle;" transform="matrix(1 0 0 1 559.711 322)">Ultralight</text>
  <text style="stroke:none;fill:black;font-family:-apple-system,&quot;SF Pro Display&quot;,&quot;SF Pro Text&quot;,Helvetica,sans-serif;text-anchor:middle;" transform="matrix(1 0 0 1 856.422 322)">Thin</text>
  <text style="stroke:none;fill:black;font-family:-apple-system,&quot;SF Pro Display&quot;,&quot;SF Pro Text&quot;,Helvetica,sans-serif;text-anchor:middle;" transform="matrix(1 0 0 1 1153.13 322)">Light</text>
  <text style="stroke:none;fill:black;font-family:-apple-system,&quot;SF Pro Display&quot;,&quot;SF Pro Text&quot;,Helvetica,sans-serif;text-anchor:middle;" transform="matrix(1 0 0 1 1449.84 322)">Regular</text>
  <text style="stroke:none;fill:black;font-family:-apple-system,&quot;SF Pro Display&quot;,&quot;SF Pro Text&quot;,Helvetica,sans-serif;text-anchor:middle;" transform="matrix(1 0 0 1 1746.56 322)">Medium</text>
  <text style="stroke:none;fill:black;font-family:-apple-system,&quot;SF Pro Display&quot;,&quot;SF Pro Text&quot;,Helvetica,sans-serif;text-anchor:middle;" transform="matrix(1 0 0 1 2043.27 322)">Semibold</text>
  <text style="stroke:none;fill:black;font-family:-apple-system,&quot;SF Pro Display&quot;,&quot;SF Pro Text&quot;,Helvetica,sans-serif;text-anchor:middle;" transform="matrix(1 0 0 1 2339.98 322)">Bold</text>
  <text style="stroke:none;fill:black;font-family:-apple-system,&quot;SF Pro Display&quot;,&quot;SF Pro Text&quot;,Helvetica,sans-serif;text-anchor:middle;" transform="matrix(1 0 0 1 2636.69 322)">Heavy</text>
  <text style="stroke:none;fill:black;font-family:-apple-system,&quot;SF Pro Display&quot;,&quot;SF Pro Text&quot;,Helvetica,sans-serif;text-anchor:middle;" transform="matrix(1 0 0 1 2933.4 322)">Black</text>
  <line id="" style="fill:none;stroke:black;opacity:1;stroke-width:0.5;" x1="263" x2="3036" y1="1903" y2="1903"/>
  <g id="" transform="matrix(1 0 0 1 263 1933)">
   <path d="M9.24805 0.830078C13.5547 0.830078 17.1387-2.74414 17.1387-7.05078C17.1387-11.3574 13.5449-14.9316 9.23828-14.9316C4.94141-14.9316 1.36719-11.3574 1.36719-7.05078C1.36719-2.74414 4.95117 0.830078 9.24805 0.830078ZM9.24805-0.654297C5.70312-0.654297 2.87109-3.49609 2.87109-7.05078C2.87109-10.6055 5.69336-13.4473 9.23828-13.4473C12.793-13.4473 15.6348-10.6055 15.6445-7.05078C15.6543-3.49609 12.8027-0.654297 9.24805-0.654297ZM6.39648-6.31836L8.50586-6.31836L8.50586-4.19922C8.50586-3.75977 8.79883-3.45703 9.22852-3.45703C9.67773-3.45703 9.9707-3.75977 9.9707-4.19922L9.9707-6.31836L12.0996-6.31836C12.5391-6.31836 12.8418-6.61133 12.8418-7.04102C12.8418-7.48047 12.5391-7.7832 12.0996-7.7832L9.9707-7.7832L9.9707-9.89258C9.9707-10.3418 9.67773-10.6445 9.22852-10.6445C8.79883-10.6445 8.50586-10.3418 8.50586-9.89258L8.50586-7.7832L6.39648-7.7832C5.94727-7.7832 5.64453-7.48047 5.64453-7.04102C5.64453-6.61133 5.94727-6.31836 6.39648-6.31836Z"/>
  </g>
  <g id="" transform="matrix(1 0 0 1 281.506 1933)">
   <path d="M11.709 2.91016C17.1582 2.91016 21.6699-1.61133 21.6699-7.05078C21.6699-12.5 17.1484-17.0117 11.6992-17.0117C6.25977-17.0117 1.74805-12.5 1.74805-7.05078C1.74805-1.61133 6.26953 2.91016 11.709 2.91016ZM11.709 1.25C7.09961 1.25 3.41797-2.44141 3.41797-7.05078C3.41797-11.6602 7.08984-15.3516 11.6992-15.3516C16.3086-15.3516 20-11.6602 20.0098-7.05078C20.0195-2.44141 16.3184 1.25 11.709 1.25ZM7.98828-6.23047L10.8789-6.23047L10.8789-3.32031C10.8789-2.83203 11.2109-2.5 11.6895-2.5C12.1777-2.5 12.5195-2.83203 12.5195-3.32031L12.5195-6.23047L15.4297-6.23047C15.918-6.23047 16.25-6.5625 16.25-7.04102C16.25-7.5293 15.918-7.87109 15.4297-7.87109L12.5195-7.87109L12.5195-10.7617C12.5195-11.2695 12.1777-11.6016 11.6895-11.6016C11.2109-11.6016 10.8789-11.2598 10.8789-10.7617L10.8789-7.87109L7.98828-7.87109C7.48047-7.87109 7.14844-7.5293 7.14844-7.04102C7.14844-6.5625 7.49023-6.23047 7.98828-6.23047Z"/>
  </g>
  <g id="" transform="matrix(1 0 0 1 304.924 1933)">
   <path d="M14.9707 5.66406C21.9336 5.66406 27.6953-0.0976562 27.6953-7.05078C27.6953-14.0137 21.9238-19.7754 14.9609-19.7754C8.00781-19.7754 2.25586-14.0137 2.25586-7.05078C2.25586-0.0976562 8.01758 5.66406 14.9707 5.66406ZM14.9707 3.84766C8.93555 3.84766 4.08203-1.01562 4.08203-7.05078C4.08203-13.0957 8.92578-17.9492 14.9609-17.9492C21.0059-17.9492 25.8594-13.0957 25.8691-7.05078C25.8789-1.01562 21.0156 3.84766 14.9707 3.84766ZM10.0586-6.14258L14.0625-6.14258L14.0625-2.12891C14.0625-1.5918 14.4336-1.2207 14.9512-1.2207C15.4883-1.2207 15.8594-1.5918 15.8594-2.12891L15.8594-6.14258L19.8828-6.14258C20.4102-6.14258 20.791-6.51367 20.791-7.03125C20.791-7.56836 20.4199-7.94922 19.8828-7.94922L15.8594-7.94922L15.8594-11.9531C15.8594-12.5098 15.4883-12.8809 14.9512-12.8809C14.4336-12.8809 14.0625-12.5 14.0625-11.9531L14.0625-7.94922L10.0586-7.94922C9.50195-7.94922 9.13086-7.56836 9.13086-7.03125C9.13086-6.51367 9.51172-6.14258 10.0586-6.14258Z"/>
  </g>
  <text style="stroke:none;fill:black;font-family:-apple-system,&quot;SF Pro Display&quot;,&quot;SF Pro Text&quot;,Helvetica,sans-serif;font-weight:bold;" transform="matrix(1 0 0 1 263 1953)">Design Variations</text>
  <text style="stroke:none;fill:black;font-family:-apple-system,&quot;SF Pro Display&quot;,&quot;SF Pro Text&quot;,Helvetica,sans-serif;" transform="matrix(1 0 0 1 263 1971)">Symbols are supported in up to nine weights and three scales.</text>
  <text style="stroke:none;fill:black;font-family:-apple-system,&quot;SF Pro Display&quot;,&quot;SF Pro Text&quot;,Helvetica,sans-serif;" transform="matrix(1 0 0 1 263 1989)">For optimal layout with text and other symbols, vertically align</text>
  <text style="stroke:none;fill:black;font-family:-apple-system,&quot;SF Pro Display&quot;,&quot;SF Pro Text&quot;,Helvetica,sans-serif;" transform="matrix(1 0 0 1 263 2007)">symbols with the adjacent text.</text>
  <line id="" style="fill:none;stroke:#00AEEF;stroke-width:0.5;opacity:1.0;" x1="776" x2="776" y1="1919" y2="1933"/>
  <g id="" transform="matrix(1 0 0 1 776 1933)">
   <path d="M3.31055 0.126953C3.82812 0.126953 4.08203-0.0683594 4.26758-0.605469L5.52734-4.0625L11.2891-4.0625L12.5488-0.605469C12.7344-0.0683594 12.9883 0.126953 13.4961 0.126953C14.0137 0.126953 14.3457-0.185547 14.3457-0.673828C14.3457-0.839844 14.3164-0.986328 14.2383-1.20117L9.6582-13.3887C9.43359-13.9941 9.0332-14.2871 8.4082-14.2871C7.80273-14.2871 7.39258-13.9941 7.17773-13.3984L2.59766-1.19141C2.51953-0.976562 2.49023-0.830078 2.49023-0.664062C2.49023-0.175781 2.80273 0.126953 3.31055 0.126953ZM6.00586-5.53711L8.37891-12.1094L8.42773-12.1094L10.8008-5.53711Z"/>
  </g>
  <line id="" style="fill:none;stroke:#00AEEF;stroke-width:0.5;opacity:1.0;" x1="792.836" x2="792.836" y1="1919" y2="1933"/>
  <text style="stroke:none;fill:black;font-family:-apple-system,&quot;SF Pro Display&quot;,&quot;SF Pro Text&quot;,Helvetica,sans-serif;font-weight:bold;" transform="matrix(1 0 0 1 776 1953)">Margins</text>
  <text style="stroke:none;fill:black;font-family:-apple-system,&quot;SF Pro Display&quot;,&quot;SF Pro Text&quot;,Helvetica,sans-serif;" transform="matrix(1 0 0 1 776 1971)">Leading and trailing margins on the left and right side of each symbol</text>
  <text style="stroke:none;fill:black;font-family:-apple-system,&quot;SF Pro Display&quot;,&quot;SF Pro Text&quot;,Helvetica,sans-serif;" transform="matrix(1 0 0 1 776 1989)">can be adjusted by modifying the x-location of the margin guidelines.</text>
  <text style="stroke:none;fill:black;font-family:-apple-system,&quot;SF Pro Display&quot;,&quot;SF Pro Text&quot;,Helvetica,sans-serif;" transform="matrix(1 0 0 1 776 2007)">Modifications are automatically applied proportionally to all</text>
  <text style="stroke:none;fill:black;font-family:-apple-system,&quot;SF Pro Display&quot;,&quot;SF Pro Text&quot;,Helvetica,sans-serif;" transform="matrix(1 0 0 1 776 2025)">scales and weights.</text>
  <g id="" transform="matrix(1 0 0 1 1289 1933)">
   <path d="M2.8418 1.86523L4.54102 3.57422C5.40039 4.44336 6.38672 4.38477 7.31445 3.35938L17.4902-7.85156C17.7539-7.76367 18.0273-7.7832 18.3398-7.8418L19.4043-8.03711L20.0684-7.36328L20.0293-6.80664C19.9902-6.30859 20.1172-5.92773 20.6055-5.44922L21.3672-4.70703C21.8457-4.22852 22.4609-4.19922 22.9297-4.66797L25.8398-7.58789C26.3086-8.05664 26.2891-8.65234 25.8105-9.13086L25.0391-9.89258C24.5605-10.3711 24.1895-10.5273 23.7109-10.4883L23.1348-10.4395L22.4902-11.0742L22.7344-12.1973C22.8613-12.7637 22.7051-13.2031 22.1191-13.7891L19.9219-15.9766C16.582-19.2969 12.1484-19.2188 9.25781-16.3281C8.83789-15.918 8.80859-15.3418 9.04297-14.9512C9.27734-14.5898 9.73633-14.3555 10.3809-14.5215C11.8457-14.8633 13.3691-14.9219 14.7949-13.9844L14.209-12.5293C14.0137-12.0508 13.9844-11.6504 14.1113-11.2891L3.04688-0.898438C2.06055 0.0195312 1.98242 0.996094 2.8418 1.86523ZM10.752-15.957C13.1836-17.7344 16.4746-17.4316 18.7012-15.2051L21.1328-12.793C21.3672-12.5586 21.4062-12.373 21.3379-12.0312L21.0156-10.5469L22.5195-9.0625L23.5059-9.12109C23.7598-9.13086 23.8379-9.11133 24.0332-8.91602L24.6094-8.33984L22.168-5.89844L21.5918-6.47461C21.3965-6.66992 21.3672-6.74805 21.377-7.01172L21.4453-7.98828L19.9512-9.47266L18.4277-9.21875C18.1055-9.15039 17.959-9.17969 17.7148-9.41406L15.7129-11.416C15.459-11.6504 15.4297-11.8164 15.5859-12.1875L16.4648-14.2773C14.9023-15.7324 12.8711-16.3574 10.8398-15.7617C10.6836-15.7227 10.625-15.8496 10.752-15.957ZM5.27344 2.30469L4.10156 1.14258C3.63281 0.683594 3.74023 0.341797 4.14062-0.0195312L14.9512-10.1953L16.416-8.71094L6.42578 2.27539C6.07422 2.67578 5.74219 2.77344 5.27344 2.30469Z"/>
  </g>
  <text style="stroke:none;fill:black;font-family:-apple-system,&quot;SF Pro Display&quot;,&quot;SF Pro Text&quot;,Helvetica,sans-serif;font-weight:bold;" transform="matrix(1 0 0 1 1289 1953)">Exporting</text>
  <text style="stroke:none;fill:black;font-family:-apple-system,&quot;SF Pro Display&quot;,&quot;SF Pro Text&quot;,Helvetica,sans-serif;" transform="matrix(1 0 0 1 1289 1971)">Symbols should be outlined when exporting to ensure the</text>
  <text style="stroke:none;fill:black;font-family:-apple-system,&quot;SF Pro Display&quot;,&quot;SF Pro Text&quot;,Helvetica,sans-serif;" transform="matrix(1 0 0 1 1289 1989)">design is preserved when submitting to Xcode.</text>
  <text id="template-version" style="stroke:none;fill:black;font-family:-apple-system,&quot;SF Pro Display&quot;,&quot;SF Pro Text&quot;,Helvetica,sans-serif;text-anchor:end;" transform="matrix(1 0 0 1 3036 1933)">Template v.2.0</text>
  <text style="stroke:none;fill:black;font-family:-apple-system,&quot;SF Pro Display&quot;,&quot;SF Pro Text&quot;,Helvetica,sans-serif;text-anchor:end;" transform="matrix(1 0 0 1 3036 1951)">Requires Xcode 12 or greater</text>
  <text style="stroke:none;fill:black;font-family:-apple-system,&quot;SF Pro Display&quot;,&quot;SF Pro Text&quot;,Helvetica,sans-serif;text-anchor:end;" transform="matrix(1 0 0 1 3036 1969)">Generated from xmark</text>
  <text style="stroke:none;fill:black;font-family:-apple-system,&quot;SF Pro Display&quot;,&quot;SF Pro Text&quot;,Helvetica,sans-serif;text-anchor:end;" transform="matrix(1 0 0 1 3036 1987)">Typeset at 100 points</text>
  <text style="stroke:none;fill:black;font-family:-apple-system,&quot;SF Pro Display&quot;,&quot;SF Pro Text&quot;,Helvetica,sans-serif;" transform="matrix(1 0 0 1 263 726)">Small</text>
  <text style="stroke:none;fill:black;font-family:-apple-system,&quot;SF Pro Display&quot;,&quot;SF Pro Text&quot;,Helvetica,sans-serif;" transform="matrix(1 0 0 1 263 1156)">Medium</text>
  <text style="stroke:none;fill:black;font-family:-apple-system,&quot;SF Pro Display&quot;,&quot;SF Pro Text&quot;,Helvetica,sans-serif;" transform="matrix(1 0 0 1 263 1586)">Large</text>
 </g>
 <g id="Guides">
  <g id="H-reference" style="fill:#27AAE1;stroke:none;" transform="matrix(1 0 0 1 339 696)">
   <path d="M0.976562 0L3.66211 0L12.9883-24.4629L45.752-24.4629L55.127 0L57.7637 0L30.6152-70.459L28.125-70.459ZM29.3457-67.1387L29.4434-67.1387L44.873-26.709L13.8672-26.709Z"/>
  </g>
  <line id="Baseline-S" style="fill:none;stroke:#27AAE1;opacity:1;stroke-width:0.5;" x1="263" x2="3036" y1="696" y2="696"/>
  <line id="Capline-S" style="fill:none;stroke:#27AAE1;opacity:1;stroke-width:0.5;" x1="263" x2="3036" y1="625.541" y2="625.541"/>
  <g id="H-reference" style="fill:#27AAE1;stroke:none;" transform="matrix(1 0 0 1 339 1126)">
   <path d="M0.976562 0L3.66211 0L12.9883-24.4629L45.752-24.4629L55.127 0L57.7637 0L30.6152-70.459L28.125-70.459ZM29.3457-67.1387L29.4434-67.1387L44.873-26.709L13.8672-26.709Z"/>
  </g>
  <line id="Baseline-M" style="fill:none;stroke:#27AAE1;opacity:1;stroke-width:0.5;" x1="263" x2="3036" y1="1126" y2="1126"/>
  <line id="Capline-M" style="fill:none;stroke:#27AAE1;opacity:1;stroke-width:0.5;" x1="263" x2="3036" y1="1055.54" y2="1055.54"/>
  <g id="H-reference" style="fill:#27AAE1;stroke:none;" transform="matrix(1 0 0 1 339 1556)">
   <path d="M0.976562 0L3.66211 0L12.9883-24.4629L45.752-24.4629L55.127 0L57.7637 0L30.6152-70.459L28.125-70.459ZM29.3457-67.1387L29.4434-67.1387L44.873-26.709L13.8672-26.709Z"/>
  </g>
  <line id="Baseline-L" style="fill:none;stroke:#27AAE1;opacity:1;stroke-width:0.5;" x1="263" x2="3036" y1="1556" y2="1556"/>
  <line id="Capline-L" style="fill:none;stroke:#27AAE1;opacity:1;stroke-width:0.5;" x1="263" x2="3036" y1="1485.54" y2="1485.54"/>
  <line id="left-margin" style="fill:none;stroke:#00AEEF;stroke-width:0.5;opacity:1.0;" x1="1398.67" x2="1398.67" y1="1030.79" y2="1150.12"/>
  <line id="right-margin" style="fill:none;stroke:#00AEEF;stroke-width:0.5;opacity:1.0;" x1="1501.02" x2="1501.02" y1="1030.79" y2="1150.12"/>
 </g>
 <g id="Symbols">
  <g id="Black-L" transform="matrix(1 0 0 1 2863.8 1556)">
   <path d="M19.3359-2.00195C15.0391 2.29492 14.8438 10.3516 19.4824 14.9414C24.1211 19.5801 32.1777 19.3848 36.4258 15.1367L69.5801-18.0664L102.734 15.0879C107.227 19.5801 115.039 19.5312 119.629 14.8926C124.268 10.2539 124.316 2.44141 119.824-2.05078L86.7188-35.1562L119.824-68.2617C124.316-72.8027 124.268-80.6152 119.629-85.2051C114.99-89.8438 107.227-89.8926 102.734-85.4004L69.5801-52.2461L36.4258-85.4492C32.1777-89.6973 24.1211-89.8926 19.4824-85.2539C14.8926-80.6152 15.0391-72.6074 19.3359-68.3594L52.4902-35.1562Z"/>
  </g>
  <g id="Heavy-L" transform="matrix(1 0 0 1 2568.06 1556)">
   <path d="M18.8965-0.0976562C15.1855 3.61328 15.0391 10.498 18.9941 14.4531C22.998 18.4082 29.834 18.2617 33.5449 14.5996L68.6035-20.5078L103.662 14.5508C107.52 18.4082 114.209 18.4082 118.164 14.4043C122.119 10.4004 122.168 3.75977 118.311-0.146484L83.3008-35.1562L118.311-70.2148C122.168-74.0723 122.168-80.7617 118.164-84.7168C114.209-88.6719 107.52-88.7207 103.662-84.8633L68.6035-49.8047L33.5449-84.9121C29.834-88.5742 22.9492-88.7695 18.9941-84.7656C15.0391-80.7617 15.1855-73.9258 18.8965-70.2637L53.9551-35.1562Z"/>
  </g>
  <g id="Bold-L" transform="matrix(1 0 0 1 2272.45 1556)">
   <path d="M18.4082 2.05078C15.332 5.07812 15.2344 10.6445 18.457 13.8672C21.7285 17.0898 27.2461 17.041 30.3223 13.9648L67.5293-23.2422L104.688 13.9648C107.861 17.0898 113.33 17.1387 116.553 13.8672C119.775 10.5957 119.775 5.17578 116.65 2.00195L79.4434-35.1562L116.65-72.3633C119.775-75.4883 119.824-80.957 116.553-84.1797C113.281-87.4023 107.861-87.4512 104.688-84.2773L67.5293-47.0703L30.3223-84.2773C27.2461-87.3535 21.6797-87.4512 18.457-84.2285C15.2344-80.957 15.332-75.4395 18.4082-72.3633L55.6152-35.1562Z"/>
  </g>
  <g id="Semibold-L" transform="matrix(1 0 0 1 1976.49 1556)">
   <path d="M18.0664 3.51562C15.4297 6.10352 15.332 10.791 18.1152 13.5254C20.8496 16.2109 25.4883 16.1621 28.0762 13.5742L66.748-25.0977L105.42 13.5254C108.105 16.2109 112.695 16.2598 115.43 13.4766C118.115 10.7422 118.164 6.20117 115.479 3.51562L76.8066-35.1562L115.479-73.8281C118.164-76.5137 118.164-81.1035 115.43-83.7891C112.646-86.5234 108.105-86.5234 105.42-83.8379L66.748-45.2148L28.0762-83.8867C25.4883-86.4746 20.8008-86.5723 18.1152-83.8379C15.3809-81.0547 15.4297-76.4648 18.0664-73.8281L56.7383-35.1562Z"/>
  </g>
  <g id="Medium-L" transform="matrix(1 0 0 1 1680.37 1556)">
   <path d="M17.7734 4.63867C15.5273 6.88477 15.4297 10.8887 17.8223 13.2324C20.2148 15.5273 24.1211 15.5273 26.416 13.2324L66.2109-26.5625L105.957 13.2324C108.301 15.5273 112.207 15.5762 114.551 13.1836C116.895 10.8398 116.895 6.93359 114.6 4.63867L74.8047-35.1562L114.6-74.9512C116.895-77.2461 116.943-81.2012 114.551-83.4961C112.158-85.8398 108.301-85.8398 105.957-83.5449L66.2109-43.75L26.416-83.5449C24.1211-85.8398 20.166-85.8887 17.8223-83.5449C15.4785-81.1523 15.5273-77.1973 17.7734-74.9512L57.5684-35.1562Z"/>
  </g>
  <g id="Regular-L" transform="matrix(1 0 0 1 1384.39 1556)">
   <path d="M17.4316 6.10352C15.625 7.91016 15.5762 10.9863 17.4316 12.8418C19.3359 14.6484 22.3633 14.6484 24.2188 12.8418L65.4297-28.418L106.689 12.8418C108.496 14.6484 111.621 14.6973 113.428 12.8418C115.283 10.9375 115.283 7.91016 113.428 6.10352L72.2168-35.1562L113.428-76.416C115.283-78.2227 115.332-81.2988 113.428-83.1543C111.572-84.9609 108.496-84.9609 106.689-83.1543L65.4297-41.8945L24.2188-83.1543C22.3633-84.9609 19.2871-85.0098 17.4316-83.1543C15.625-81.25 15.625-78.2227 17.4316-76.416L58.6914-35.1562Z"/>
  </g>
  <g id="Light-L" transform="matrix(1 0 0 1 1088.46 1556)">
   <path d="M17.1387 7.32422C15.7227 8.74023 15.7227 11.0352 17.1387 12.4023C18.5547 13.7695 20.8008 13.7695 22.168 12.4023L64.6484-30.0781L107.129 12.4023C108.545 13.7695 110.84 13.8184 112.207 12.4023C113.574 10.9863 113.574 8.74023 112.207 7.32422L69.7266-35.1562L112.207-77.6367C113.574-79.0039 113.623-81.2988 112.207-82.666C110.791-84.082 108.545-84.082 107.129-82.666L64.6484-40.1855L22.168-82.666C20.8008-84.082 18.5059-84.082 17.1387-82.666C15.7227-81.25 15.7227-79.0039 17.1387-77.6367L59.6191-35.1562Z"/>
  </g>
  <g id="Thin-L" transform="matrix(1 0 0 1 792.799 1556)">
   <path d="M16.6504 8.98438C15.8691 9.81445 15.8691 11.0352 16.6504 11.8652C17.4805 12.6465 18.7012 12.6465 19.5312 11.8652L63.623-32.2754L107.764 11.8652C108.545 12.6465 109.766 12.6465 110.596 11.8652C111.377 11.0352 111.377 9.81445 110.596 8.98438L66.4551-35.1074L110.596-79.248C111.377-80.0293 111.377-81.2988 110.596-82.0801C109.766-82.8613 108.545-82.8613 107.764-82.0801L63.623-37.9395L19.5312-82.0801C18.7012-82.8613 17.4805-82.8613 16.6504-82.0801C15.8691-81.25 15.8691-80.0293 16.6504-79.248L60.791-35.1074Z"/>
  </g>
  <g id="Ultralight-L" transform="matrix(1 0 0 1 496.601 1556)">
   <path d="M16.4551 9.86328C15.918 10.3516 15.9668 11.0352 16.4551 11.5723C16.9434 12.0605 17.627 12.0605 18.1641 11.5723L63.0859-33.3984L108.057 11.5723C108.545 12.0605 109.277 12.0605 109.766 11.5723C110.254 11.084 110.254 10.3516 109.766 9.86328L64.7949-35.1074L109.766-80.0781C110.254-80.5664 110.254-81.25 109.766-81.7383C109.277-82.2754 108.545-82.2754 108.057-81.7383L63.0859-36.8164L18.1641-81.7383C17.627-82.2754 16.9434-82.2754 16.4551-81.7383C15.918-81.25 15.918-80.5664 16.4551-80.0781L61.377-35.1074Z"/>
  </g>
  <g id="Black-M" transform="matrix(1 0 0 1 2878.54 1126)">
   <path d="M15.3809-11.377C11.5234-7.51953 11.3281-0.146484 15.5762 4.10156C19.8242 8.34961 27.1973 8.1543 31.0547 4.29688L54.834-19.5312L78.5645 4.24805C82.666 8.34961 89.8438 8.25195 94.043 4.05273C98.291-0.195312 98.3398-7.32422 94.2383-11.4258L70.5078-35.1562L94.2383-58.8867C98.3398-62.9883 98.291-70.166 94.043-74.3652C89.8438-78.6133 82.666-78.6621 78.5645-74.5605L54.834-50.8301L31.0547-74.6094C27.1973-78.4668 19.8242-78.6621 15.5762-74.4141C11.3281-70.2148 11.5234-62.8418 15.3809-58.9844L39.209-35.1562Z"/>
  </g>
  <g id="Heavy-M" transform="matrix(1 0 0 1 2582.71 1126)">
   <path d="M14.9902-9.61914C11.6699-6.25 11.5234 0.0488281 15.1367 3.66211C18.75 7.27539 25.0977 7.12891 28.418 3.80859L53.9551-21.7285L79.4922 3.75977C83.0078 7.27539 89.1602 7.27539 92.7734 3.61328C96.3867 0 96.4355-6.10352 92.9199-9.66797L67.3828-35.1562L92.9199-60.6934C96.4355-64.209 96.3867-70.3125 92.7734-73.9746C89.1113-77.5879 83.0078-77.6367 79.4922-74.1211L53.9551-48.584L28.418-74.1699C25.0977-77.4902 18.75-77.6367 15.1367-74.0234C11.5234-70.3613 11.6699-64.0625 14.9902-60.7422L40.5762-35.1562Z"/>
  </g>
  <g id="Bold-M" transform="matrix(1 0 0 1 2286.97 1126)">
   <path d="M14.5508-7.66602C11.8164-4.88281 11.6699 0.244141 14.6484 3.17383C17.627 6.15234 22.7051 6.05469 25.4883 3.27148L53.0273-24.2676L80.5176 3.22266C83.3984 6.15234 88.3789 6.10352 91.3086 3.125C94.2871 0.195312 94.2871-4.78516 91.4062-7.66602L63.916-35.1562L91.4062-62.6953C94.2871-65.5762 94.2871-70.5566 91.3086-73.4863C88.3789-76.4648 83.3984-76.4648 80.5176-73.584L53.0273-46.0938L25.4883-73.6328C22.7051-76.3672 17.5781-76.5137 14.6484-73.5352C11.7188-70.5566 11.8164-65.4785 14.5508-62.6953L42.0898-35.1562Z"/>
  </g>
  <g id="Semibold-M" transform="matrix(1 0 0 1 1990.92 1126)">
   <path d="M14.2578-6.29883C11.8652-3.90625 11.8164 0.341797 14.3066 2.83203C16.8457 5.32227 21.0938 5.27344 23.4375 2.92969L52.3438-25.9766L81.2012 2.88086C83.6426 5.32227 87.8418 5.32227 90.332 2.83203C92.8223 0.292969 92.8223-3.85742 90.3809-6.29883L61.5234-35.1562L90.3809-64.0625C92.8223-66.5039 92.8711-70.7031 90.332-73.1934C87.8418-75.6836 83.6426-75.6836 81.2012-73.2422L52.3438-44.3848L23.4375-73.2422C21.0938-75.6348 16.7969-75.7324 14.3066-73.1934C11.8164-70.7031 11.8652-66.4062 14.2578-64.0625L43.1152-35.1562Z"/>
  </g>
  <g id="Medium-M" transform="matrix(1 0 0 1 1694.72 1126)">
   <path d="M14.0137-5.27344C11.9629-3.22266 11.8652 0.439453 14.0625 2.58789C16.2109 4.73633 19.873 4.6875 21.9238 2.63672L51.8066-27.2949L81.7383 2.63672C83.8379 4.73633 87.4512 4.73633 89.5996 2.58789C91.6992 0.390625 91.748-3.17383 89.5996-5.27344L59.7168-35.2051L89.5996-65.0879C91.748-67.1875 91.748-70.8008 89.5996-72.9492C87.4023-75.0488 83.8379-75.0977 81.7383-72.998L51.8066-43.0664L21.9238-72.998C19.873-75.0488 16.1621-75.1465 14.0625-72.9492C11.9141-70.8008 11.9629-67.1387 14.0137-65.0879L43.9453-35.2051Z"/>
  </g>
  <g id="Regular-M" transform="matrix(1 0 0 1 1398.67 1126)">
   <path d="M13.7207-3.90625C12.0605-2.24609 12.0117 0.585938 13.7207 2.24609C15.4297 3.90625 18.2617 3.90625 19.9219 2.24609L51.1719-29.0039L82.4219 2.24609C84.082 3.90625 86.9629 3.95508 88.623 2.24609C90.2832 0.537109 90.2832-2.24609 88.623-3.90625L57.373-35.2051L88.623-66.4551C90.2832-68.1152 90.332-70.9473 88.623-72.6074C86.9141-74.3164 84.082-74.3164 82.4219-72.6074L51.1719-41.3574L19.9219-72.6074C18.2617-74.3164 15.3809-74.3652 13.7207-72.6074C12.0605-70.8984 12.0605-68.1152 13.7207-66.4551L44.9707-35.2051Z"/>
  </g>
  <g id="Light-M" transform="matrix(1 0 0 1 1102.67 1126)">
   <path d="M13.4277-2.7832C12.1582-1.51367 12.1094 0.585938 13.4277 1.85547C14.7461 3.17383 16.8457 3.17383 18.1152 1.85547L50.4883-30.4688L82.8125 1.85547C84.082 3.17383 86.2305 3.17383 87.5 1.85547C88.7695 0.585938 88.7695-1.51367 87.5-2.7832L55.127-35.1562L87.5-67.5293C88.7695-68.7988 88.8184-70.9473 87.5-72.2168C86.1816-73.4863 84.082-73.4863 82.8125-72.2168L50.4883-39.8438L18.1152-72.2168C16.8457-73.4863 14.6973-73.5352 13.4277-72.2168C12.1582-70.8984 12.1582-68.7988 13.4277-67.5293L45.8008-35.1562Z"/>
  </g>
  <g id="Thin-M" transform="matrix(1 0 0 1 806.886 1126)">
   <path d="M13.0371-1.31836C12.2559-0.585938 12.2559 0.634766 13.0371 1.36719C13.7695 2.09961 14.9414 2.09961 15.7227 1.36719L49.5117-32.4707L83.3496 1.36719C84.1309 2.09961 85.3027 2.14844 86.0352 1.36719C86.8164 0.634766 86.8164-0.585938 86.0352-1.31836L52.1973-35.1562L86.0352-68.9941C86.8164-69.7266 86.8164-70.8984 86.0352-71.6797C85.3027-72.4121 84.1309-72.4121 83.3496-71.6797L49.5117-37.8418L15.7227-71.6797C14.9414-72.4121 13.7695-72.4121 13.0371-71.6797C12.2559-70.8984 12.2559-69.7266 13.0371-68.9941L46.875-35.1562Z"/>
  </g>
  <g id="Ultralight-M" transform="matrix(1 0 0 1 510.639 1126)">
   <path d="M12.793-0.537109C12.3535-0.0488281 12.3535 0.634766 12.793 1.12305C13.2812 1.61133 14.0137 1.61133 14.4531 1.12305L49.0723-33.4961L83.6426 1.12305C84.1309 1.61133 84.8145 1.61133 85.3027 1.12305C85.791 0.634766 85.791-0.0488281 85.3027-0.537109L50.7324-35.1562L85.3027-69.7266C85.791-70.2148 85.791-70.8984 85.3027-71.3867C84.8145-71.875 84.1309-71.875 83.6426-71.3867L49.0723-36.8164L14.4531-71.3867C14.0137-71.875 13.2812-71.875 12.793-71.3867C12.3535-70.8984 12.3535-70.2148 12.793-69.7266L47.4121-35.1562Z"/>
  </g>
  <g id="Black-S" transform="matrix(1 0 0 1 2890.46 696)">
   <path d="M12.0605-16.4062C9.08203-13.4277 8.93555-7.71484 12.207-4.44336C15.4785-1.17188 21.1914-1.31836 24.1699-4.29688L42.9199-23.0957L61.6699-4.3457C64.8438-1.17188 70.3613-1.2207 73.6328-4.49219C76.9043-7.76367 76.9531-13.2812 73.7793-16.4551L55.0293-35.2051L73.7793-53.9062C76.9531-57.0801 76.9043-62.5977 73.6328-65.8691C70.3613-69.1406 64.8438-69.1895 61.6699-66.0156L42.9199-47.3145L24.1699-66.0645C21.1914-69.043 15.4785-69.1895 12.207-65.918C8.93555-62.6465 9.08203-56.9336 12.0605-53.9551L30.8105-35.2051Z"/>
  </g>
  <g id="Heavy-S" transform="matrix(1 0 0 1 2594.35 696)">
   <path d="M11.7676-15.1855C9.13086-12.5488 9.0332-7.56836 11.8652-4.73633C14.7461-1.9043 19.7266-2.00195 22.3145-4.63867L42.334-24.6094L62.3047-4.63867C65.0879-1.9043 69.873-1.9043 72.7539-4.78516C75.5859-7.61719 75.6348-12.4512 72.8516-15.2344L52.8809-35.2051L72.8516-55.127C75.6348-57.9102 75.6348-62.7441 72.7539-65.5762C69.873-68.457 65.0879-68.5059 62.3047-65.7227L42.334-45.752L22.3145-65.7715C19.7266-68.3594 14.7461-68.5059 11.8652-65.625C9.0332-62.793 9.13086-57.8125 11.7676-55.1758L31.7871-35.2051Z"/>
  </g>
  <g id="Bold-S" transform="matrix(1 0 0 1 2298.3 696)">
   <path d="M11.4746-13.8184C9.22852-11.5723 9.13086-7.42188 11.5234-5.07812C13.9648-2.68555 18.0664-2.73438 20.3125-4.98047L41.6992-26.3672L63.0371-5.0293C65.332-2.68555 69.3848-2.68555 71.7773-5.07812C74.1699-7.4707 74.2188-11.5234 71.875-13.8672L50.5371-35.2051L71.875-56.543C74.2188-58.8867 74.2188-62.8906 71.7773-65.2832C69.3848-67.6758 65.332-67.7246 63.0371-65.3809L41.6992-44.043L20.3125-65.3809C18.0664-67.627 13.916-67.7246 11.5234-65.332C9.17969-62.9395 9.22852-58.7891 11.4746-56.543L32.8125-35.2051Z"/>
  </g>
  <g id="Semibold-S" transform="matrix(1 0 0 1 2002.03 696)">
   <path d="M11.2793-12.8906C9.27734-10.9375 9.22852-7.32422 11.3281-5.27344C13.4277-3.22266 16.9434-3.27148 18.9453-5.22461L41.2109-27.5391L63.5254-5.27344C65.5273-3.22266 69.043-3.22266 71.1426-5.32227C73.1934-7.37305 73.1934-10.8887 71.1914-12.8906L48.877-35.2051L71.1914-57.4707C73.1934-59.5215 73.2422-63.0371 71.1426-65.0879C69.043-67.1387 65.5273-67.1875 63.5254-65.1367L41.2109-42.8711L18.9453-65.1367C16.9434-67.1387 13.3789-67.1875 11.3281-65.0879C9.22852-63.0371 9.27734-59.4727 11.2793-57.5195L33.5938-35.2051Z"/>
  </g>
  <g id="Medium-S" transform="matrix(1 0 0 1 1705.66 696)">
   <path d="M11.1328-12.1582C9.32617-10.4004 9.27734-7.27539 11.1328-5.46875C12.9883-3.61328 16.1133-3.66211 17.8711-5.41992L40.8691-28.4668L63.916-5.41992C65.6738-3.61328 68.7988-3.61328 70.6055-5.46875C72.4609-7.32422 72.4609-10.4004 70.6543-12.207L47.6562-35.2051L70.6543-58.2031C72.4609-60.0098 72.4609-63.1348 70.6055-64.9414C68.75-66.748 65.6738-66.748 63.916-64.9414L40.8691-41.9434L17.8711-64.9902C16.1133-66.748 12.9395-66.7969 11.1328-64.9414C9.32617-63.0859 9.32617-59.9609 11.1328-58.2031L34.1309-35.2051Z"/>
  </g>
  <g id="Regular-S" transform="matrix(1 0 0 1 1409.41 696)">
   <path d="M10.8887-11.2305C9.42383-9.76562 9.375-7.17773 10.8887-5.66406C12.4512-4.15039 14.9902-4.15039 16.5039-5.66406L40.4297-29.6387L64.4043-5.66406C65.8691-4.15039 68.457-4.15039 69.9707-5.66406C71.4844-7.22656 71.4844-9.76562 69.9707-11.2305L45.9961-35.2051L69.9707-59.1309C71.4844-60.6445 71.5332-63.2324 69.9707-64.7461C68.4082-66.2109 65.8691-66.2109 64.4043-64.7461L40.4297-40.7715L16.5039-64.7461C14.9902-66.2109 12.4023-66.2598 10.8887-64.7461C9.42383-63.1836 9.42383-60.6445 10.8887-59.1309L34.8633-35.2051Z"/>
  </g>
  <g id="Light-S" transform="matrix(1 0 0 1 1113.31 696)">
   <path d="M10.6445-10.2539C9.47266-9.08203 9.47266-7.17773 10.6445-6.00586C11.8164-4.88281 13.7207-4.88281 14.8926-6.00586L39.7949-30.957L64.7461-6.00586C65.918-4.88281 67.8223-4.83398 68.9941-6.00586C70.1172-7.17773 70.1172-9.08203 68.9941-10.2539L44.043-35.2051L68.9941-60.1074C70.1172-61.2793 70.166-63.2324 68.9941-64.3555C67.8223-65.5273 65.918-65.5273 64.7461-64.3555L39.7949-39.4531L14.8926-64.3555C13.7207-65.5273 11.7676-65.5273 10.6445-64.3555C9.47266-63.1836 9.47266-61.2793 10.6445-60.1074L35.5957-35.2051Z"/>
  </g>
  <g id="Thin-S" transform="matrix(1 0 0 1 817.433 696)">
   <path d="M10.3027-8.93555C9.61914-8.25195 9.57031-7.12891 10.3027-6.44531C10.9863-5.76172 12.0605-5.76172 12.7441-6.44531L39.0137-32.666L65.2344-6.44531C65.918-5.76172 67.041-5.76172 67.7246-6.44531C68.4082-7.17773 68.4082-8.25195 67.7246-8.93555L41.4551-35.1562L67.7246-61.377C68.4082-62.0605 68.4082-63.1836 67.7246-63.8672C66.9922-64.5508 65.918-64.5508 65.2344-63.8672L39.0137-37.6465L12.7441-63.8672C12.0605-64.5508 10.9863-64.5996 10.3027-63.8672C9.61914-63.1836 9.61914-62.0605 10.3027-61.377L36.5234-35.1562Z"/>
  </g>
  <g id="Ultralight-S" transform="matrix(1 0 0 1 521.137 696)">
   <path d="M10.1074-8.25195C9.66797-7.8125 9.66797-7.12891 10.1074-6.68945C10.5469-6.25 11.2305-6.25 11.6699-6.68945L38.5742-33.5938L65.4785-6.68945C65.918-6.25 66.6016-6.25 67.041-6.68945C67.4805-7.12891 67.4805-7.8125 67.041-8.25195L40.1367-35.1562L67.041-62.0605C67.4805-62.5 67.4805-63.1836 67.041-63.623C66.6016-64.0625 65.918-64.0625 65.4785-63.623L38.5742-36.7188L11.6699-63.623C11.2305-64.0625 10.5469-64.0625 10.1074-63.623C9.66797-63.1836 9.66797-62.5 10.1074-62.0605L37.0117-35.1562Z"/>
  </g>
 </g>
</svg>
