<?xml version="1.0" encoding="UTF-8"?>
<!--Generator: Apple Native CoreSVG 149-->
<!DOCTYPE svg
PUBLIC "-//W3C//DTD SVG 1.1//EN"
       "http://www.w3.org/Graphics/SVG/1.1/DTD/svg11.dtd">
<svg version="1.1" xmlns="http://www.w3.org/2000/svg" xmlns:xlink="http://www.w3.org/1999/xlink" width="3300" height="2200">
 <!--glyph: "uni100173.medium", point size: 100.000000, font version: "Version 16.0d18e1", template writer version: "8"-->
 <g id="Notes">
  <rect height="2200" id="artboard" style="fill:white;opacity:1" width="3300" x="0" y="0"/>
  <line id="" style="fill:none;stroke:black;opacity:1;stroke-width:0.5;" x1="263" x2="3036" y1="292" y2="292"/>
  <text style="stroke:none;fill:black;font-family:-apple-system,&quot;SF Pro Display&quot;,&quot;SF Pro Text&quot;,Helvetica,sans-serif;font-weight:bold;" transform="matrix(1 0 0 1 263 322)">Weight/Scale Variations</text>
  <text style="stroke:none;fill:black;font-family:-apple-system,&quot;SF Pro Display&quot;,&quot;SF Pro Text&quot;,Helvetica,sans-serif;text-anchor:middle;" transform="matrix(1 0 0 1 559.711 322)">Ultralight</text>
  <text style="stroke:none;fill:black;font-family:-apple-system,&quot;SF Pro Display&quot;,&quot;SF Pro Text&quot;,Helvetica,sans-serif;text-anchor:middle;" transform="matrix(1 0 0 1 856.422 322)">Thin</text>
  <text style="stroke:none;fill:black;font-family:-apple-system,&quot;SF Pro Display&quot;,&quot;SF Pro Text&quot;,Helvetica,sans-serif;text-anchor:middle;" transform="matrix(1 0 0 1 1153.13 322)">Light</text>
  <text style="stroke:none;fill:black;font-family:-apple-system,&quot;SF Pro Display&quot;,&quot;SF Pro Text&quot;,Helvetica,sans-serif;text-anchor:middle;" transform="matrix(1 0 0 1 1449.84 322)">Regular</text>
  <text style="stroke:none;fill:black;font-family:-apple-system,&quot;SF Pro Display&quot;,&quot;SF Pro Text&quot;,Helvetica,sans-serif;text-anchor:middle;" transform="matrix(1 0 0 1 1746.56 322)">Medium</text>
  <text style="stroke:none;fill:black;font-family:-apple-system,&quot;SF Pro Display&quot;,&quot;SF Pro Text&quot;,Helvetica,sans-serif;text-anchor:middle;" transform="matrix(1 0 0 1 2043.27 322)">Semibold</text>
  <text style="stroke:none;fill:black;font-family:-apple-system,&quot;SF Pro Display&quot;,&quot;SF Pro Text&quot;,Helvetica,sans-serif;text-anchor:middle;" transform="matrix(1 0 0 1 2339.98 322)">Bold</text>
  <text style="stroke:none;fill:black;font-family:-apple-system,&quot;SF Pro Display&quot;,&quot;SF Pro Text&quot;,Helvetica,sans-serif;text-anchor:middle;" transform="matrix(1 0 0 1 2636.69 322)">Heavy</text>
  <text style="stroke:none;fill:black;font-family:-apple-system,&quot;SF Pro Display&quot;,&quot;SF Pro Text&quot;,Helvetica,sans-serif;text-anchor:middle;" transform="matrix(1 0 0 1 2933.4 322)">Black</text>
  <line id="" style="fill:none;stroke:black;opacity:1;stroke-width:0.5;" x1="263" x2="3036" y1="1903" y2="1903"/>
  <g id="" transform="matrix(1 0 0 1 263 1933)">
   <path d="M9.24805 0.830078C13.5547 0.830078 17.1387-2.74414 17.1387-7.05078C17.1387-11.3574 13.5449-14.9316 9.23828-14.9316C4.94141-14.9316 1.36719-11.3574 1.36719-7.05078C1.36719-2.74414 4.95117 0.830078 9.24805 0.830078ZM9.24805-0.654297C5.70312-0.654297 2.87109-3.49609 2.87109-7.05078C2.87109-10.6055 5.69336-13.4473 9.23828-13.4473C12.793-13.4473 15.6348-10.6055 15.6445-7.05078C15.6543-3.49609 12.8027-0.654297 9.24805-0.654297ZM6.39648-6.31836L8.50586-6.31836L8.50586-4.19922C8.50586-3.75977 8.79883-3.45703 9.22852-3.45703C9.67773-3.45703 9.9707-3.75977 9.9707-4.19922L9.9707-6.31836L12.0996-6.31836C12.5391-6.31836 12.8418-6.61133 12.8418-7.04102C12.8418-7.48047 12.5391-7.7832 12.0996-7.7832L9.9707-7.7832L9.9707-9.89258C9.9707-10.3418 9.67773-10.6445 9.22852-10.6445C8.79883-10.6445 8.50586-10.3418 8.50586-9.89258L8.50586-7.7832L6.39648-7.7832C5.94727-7.7832 5.64453-7.48047 5.64453-7.04102C5.64453-6.61133 5.94727-6.31836 6.39648-6.31836Z"/>
  </g>
  <g id="" transform="matrix(1 0 0 1 281.506 1933)">
   <path d="M11.709 2.91016C17.1582 2.91016 21.6699-1.61133 21.6699-7.05078C21.6699-12.5 17.1484-17.0117 11.6992-17.0117C6.25977-17.0117 1.74805-12.5 1.74805-7.05078C1.74805-1.61133 6.26953 2.91016 11.709 2.91016ZM11.709 1.25C7.09961 1.25 3.41797-2.44141 3.41797-7.05078C3.41797-11.6602 7.08984-15.3516 11.6992-15.3516C16.3086-15.3516 20-11.6602 20.0098-7.05078C20.0195-2.44141 16.3184 1.25 11.709 1.25ZM7.98828-6.23047L10.8789-6.23047L10.8789-3.32031C10.8789-2.83203 11.2109-2.5 11.6895-2.5C12.1777-2.5 12.5195-2.83203 12.5195-3.32031L12.5195-6.23047L15.4297-6.23047C15.918-6.23047 16.25-6.5625 16.25-7.04102C16.25-7.5293 15.918-7.87109 15.4297-7.87109L12.5195-7.87109L12.5195-10.7617C12.5195-11.2695 12.1777-11.6016 11.6895-11.6016C11.2109-11.6016 10.8789-11.2598 10.8789-10.7617L10.8789-7.87109L7.98828-7.87109C7.48047-7.87109 7.14844-7.5293 7.14844-7.04102C7.14844-6.5625 7.49023-6.23047 7.98828-6.23047Z"/>
  </g>
  <g id="" transform="matrix(1 0 0 1 304.924 1933)">
   <path d="M14.9707 5.66406C21.9336 5.66406 27.6953-0.0976562 27.6953-7.05078C27.6953-14.0137 21.9238-19.7754 14.9609-19.7754C8.00781-19.7754 2.25586-14.0137 2.25586-7.05078C2.25586-0.0976562 8.01758 5.66406 14.9707 5.66406ZM14.9707 3.84766C8.93555 3.84766 4.08203-1.01562 4.08203-7.05078C4.08203-13.0957 8.92578-17.9492 14.9609-17.9492C21.0059-17.9492 25.8594-13.0957 25.8691-7.05078C25.8789-1.01562 21.0156 3.84766 14.9707 3.84766ZM10.0586-6.14258L14.0625-6.14258L14.0625-2.12891C14.0625-1.5918 14.4336-1.2207 14.9512-1.2207C15.4883-1.2207 15.8594-1.5918 15.8594-2.12891L15.8594-6.14258L19.8828-6.14258C20.4102-6.14258 20.791-6.51367 20.791-7.03125C20.791-7.56836 20.4199-7.94922 19.8828-7.94922L15.8594-7.94922L15.8594-11.9531C15.8594-12.5098 15.4883-12.8809 14.9512-12.8809C14.4336-12.8809 14.0625-12.5 14.0625-11.9531L14.0625-7.94922L10.0586-7.94922C9.50195-7.94922 9.13086-7.56836 9.13086-7.03125C9.13086-6.51367 9.51172-6.14258 10.0586-6.14258Z"/>
  </g>
  <text style="stroke:none;fill:black;font-family:-apple-system,&quot;SF Pro Display&quot;,&quot;SF Pro Text&quot;,Helvetica,sans-serif;font-weight:bold;" transform="matrix(1 0 0 1 263 1953)">Design Variations</text>
  <text style="stroke:none;fill:black;font-family:-apple-system,&quot;SF Pro Display&quot;,&quot;SF Pro Text&quot;,Helvetica,sans-serif;" transform="matrix(1 0 0 1 263 1971)">Symbols are supported in up to nine weights and three scales.</text>
  <text style="stroke:none;fill:black;font-family:-apple-system,&quot;SF Pro Display&quot;,&quot;SF Pro Text&quot;,Helvetica,sans-serif;" transform="matrix(1 0 0 1 263 1989)">For optimal layout with text and other symbols, vertically align</text>
  <text style="stroke:none;fill:black;font-family:-apple-system,&quot;SF Pro Display&quot;,&quot;SF Pro Text&quot;,Helvetica,sans-serif;" transform="matrix(1 0 0 1 263 2007)">symbols with the adjacent text.</text>
  <line id="" style="fill:none;stroke:#00AEEF;stroke-width:0.5;opacity:1.0;" x1="776" x2="776" y1="1919" y2="1933"/>
  <g id="" transform="matrix(1 0 0 1 776 1933)">
   <path d="M3.31055 0.126953C3.82812 0.126953 4.08203-0.0683594 4.26758-0.605469L5.52734-4.0625L11.2891-4.0625L12.5488-0.605469C12.7344-0.0683594 12.9883 0.126953 13.4961 0.126953C14.0137 0.126953 14.3457-0.185547 14.3457-0.673828C14.3457-0.839844 14.3164-0.986328 14.2383-1.20117L9.6582-13.3887C9.43359-13.9941 9.0332-14.2871 8.4082-14.2871C7.80273-14.2871 7.39258-13.9941 7.17773-13.3984L2.59766-1.19141C2.51953-0.976562 2.49023-0.830078 2.49023-0.664062C2.49023-0.175781 2.80273 0.126953 3.31055 0.126953ZM6.00586-5.53711L8.37891-12.1094L8.42773-12.1094L10.8008-5.53711Z"/>
  </g>
  <line id="" style="fill:none;stroke:#00AEEF;stroke-width:0.5;opacity:1.0;" x1="792.836" x2="792.836" y1="1919" y2="1933"/>
  <text style="stroke:none;fill:black;font-family:-apple-system,&quot;SF Pro Display&quot;,&quot;SF Pro Text&quot;,Helvetica,sans-serif;font-weight:bold;" transform="matrix(1 0 0 1 776 1953)">Margins</text>
  <text style="stroke:none;fill:black;font-family:-apple-system,&quot;SF Pro Display&quot;,&quot;SF Pro Text&quot;,Helvetica,sans-serif;" transform="matrix(1 0 0 1 776 1971)">Leading and trailing margins on the left and right side of each symbol</text>
  <text style="stroke:none;fill:black;font-family:-apple-system,&quot;SF Pro Display&quot;,&quot;SF Pro Text&quot;,Helvetica,sans-serif;" transform="matrix(1 0 0 1 776 1989)">can be adjusted by modifying the x-location of the margin guidelines.</text>
  <text style="stroke:none;fill:black;font-family:-apple-system,&quot;SF Pro Display&quot;,&quot;SF Pro Text&quot;,Helvetica,sans-serif;" transform="matrix(1 0 0 1 776 2007)">Modifications are automatically applied proportionally to all</text>
  <text style="stroke:none;fill:black;font-family:-apple-system,&quot;SF Pro Display&quot;,&quot;SF Pro Text&quot;,Helvetica,sans-serif;" transform="matrix(1 0 0 1 776 2025)">scales and weights.</text>
  <g id="" transform="matrix(1 0 0 1 1289 1933)">
   <path d="M2.8418 1.86523L4.54102 3.57422C5.40039 4.44336 6.38672 4.38477 7.31445 3.35938L17.4902-7.85156C17.7539-7.76367 18.0273-7.7832 18.3398-7.8418L19.4043-8.03711L20.0684-7.36328L20.0293-6.80664C19.9902-6.30859 20.1172-5.92773 20.6055-5.44922L21.3672-4.70703C21.8457-4.22852 22.4609-4.19922 22.9297-4.66797L25.8398-7.58789C26.3086-8.05664 26.2891-8.65234 25.8105-9.13086L25.0391-9.89258C24.5605-10.3711 24.1895-10.5273 23.7109-10.4883L23.1348-10.4395L22.4902-11.0742L22.7344-12.1973C22.8613-12.7637 22.7051-13.2031 22.1191-13.7891L19.9219-15.9766C16.582-19.2969 12.1484-19.2188 9.25781-16.3281C8.83789-15.918 8.80859-15.3418 9.04297-14.9512C9.27734-14.5898 9.73633-14.3555 10.3809-14.5215C11.8457-14.8633 13.3691-14.9219 14.7949-13.9844L14.209-12.5293C14.0137-12.0508 13.9844-11.6504 14.1113-11.2891L3.04688-0.898438C2.06055 0.0195312 1.98242 0.996094 2.8418 1.86523ZM10.752-15.957C13.1836-17.7344 16.4746-17.4316 18.7012-15.2051L21.1328-12.793C21.3672-12.5586 21.4062-12.373 21.3379-12.0312L21.0156-10.5469L22.5195-9.0625L23.5059-9.12109C23.7598-9.13086 23.8379-9.11133 24.0332-8.91602L24.6094-8.33984L22.168-5.89844L21.5918-6.47461C21.3965-6.66992 21.3672-6.74805 21.377-7.01172L21.4453-7.98828L19.9512-9.47266L18.4277-9.21875C18.1055-9.15039 17.959-9.17969 17.7148-9.41406L15.7129-11.416C15.459-11.6504 15.4297-11.8164 15.5859-12.1875L16.4648-14.2773C14.9023-15.7324 12.8711-16.3574 10.8398-15.7617C10.6836-15.7227 10.625-15.8496 10.752-15.957ZM5.27344 2.30469L4.10156 1.14258C3.63281 0.683594 3.74023 0.341797 4.14062-0.0195312L14.9512-10.1953L16.416-8.71094L6.42578 2.27539C6.07422 2.67578 5.74219 2.77344 5.27344 2.30469Z"/>
  </g>
  <text style="stroke:none;fill:black;font-family:-apple-system,&quot;SF Pro Display&quot;,&quot;SF Pro Text&quot;,Helvetica,sans-serif;font-weight:bold;" transform="matrix(1 0 0 1 1289 1953)">Exporting</text>
  <text style="stroke:none;fill:black;font-family:-apple-system,&quot;SF Pro Display&quot;,&quot;SF Pro Text&quot;,Helvetica,sans-serif;" transform="matrix(1 0 0 1 1289 1971)">Symbols should be outlined when exporting to ensure the</text>
  <text style="stroke:none;fill:black;font-family:-apple-system,&quot;SF Pro Display&quot;,&quot;SF Pro Text&quot;,Helvetica,sans-serif;" transform="matrix(1 0 0 1 1289 1989)">design is preserved when submitting to Xcode.</text>
  <text id="template-version" style="stroke:none;fill:black;font-family:-apple-system,&quot;SF Pro Display&quot;,&quot;SF Pro Text&quot;,Helvetica,sans-serif;text-anchor:end;" transform="matrix(1 0 0 1 3036 1933)">Template v.2.0</text>
  <text style="stroke:none;fill:black;font-family:-apple-system,&quot;SF Pro Display&quot;,&quot;SF Pro Text&quot;,Helvetica,sans-serif;text-anchor:end;" transform="matrix(1 0 0 1 3036 1951)">Requires Xcode 12 or greater</text>
  <text style="stroke:none;fill:black;font-family:-apple-system,&quot;SF Pro Display&quot;,&quot;SF Pro Text&quot;,Helvetica,sans-serif;text-anchor:end;" transform="matrix(1 0 0 1 3036 1969)">Generated from info</text>
  <text style="stroke:none;fill:black;font-family:-apple-system,&quot;SF Pro Display&quot;,&quot;SF Pro Text&quot;,Helvetica,sans-serif;text-anchor:end;" transform="matrix(1 0 0 1 3036 1987)">Typeset at 100 points</text>
  <text style="stroke:none;fill:black;font-family:-apple-system,&quot;SF Pro Display&quot;,&quot;SF Pro Text&quot;,Helvetica,sans-serif;" transform="matrix(1 0 0 1 263 726)">Small</text>
  <text style="stroke:none;fill:black;font-family:-apple-system,&quot;SF Pro Display&quot;,&quot;SF Pro Text&quot;,Helvetica,sans-serif;" transform="matrix(1 0 0 1 263 1156)">Medium</text>
  <text style="stroke:none;fill:black;font-family:-apple-system,&quot;SF Pro Display&quot;,&quot;SF Pro Text&quot;,Helvetica,sans-serif;" transform="matrix(1 0 0 1 263 1586)">Large</text>
 </g>
 <g id="Guides">
  <g id="H-reference" style="fill:#27AAE1;stroke:none;" transform="matrix(1 0 0 1 339 696)">
   <path d="M0.976562 0L3.66211 0L12.9883-24.4629L45.752-24.4629L55.127 0L57.7637 0L30.6152-70.459L28.125-70.459ZM29.3457-67.1387L29.4434-67.1387L44.873-26.709L13.8672-26.709Z"/>
  </g>
  <line id="Baseline-S" style="fill:none;stroke:#27AAE1;opacity:1;stroke-width:0.5;" x1="263" x2="3036" y1="696" y2="696"/>
  <line id="Capline-S" style="fill:none;stroke:#27AAE1;opacity:1;stroke-width:0.5;" x1="263" x2="3036" y1="625.541" y2="625.541"/>
  <g id="H-reference" style="fill:#27AAE1;stroke:none;" transform="matrix(1 0 0 1 339 1126)">
   <path d="M0.976562 0L3.66211 0L12.9883-24.4629L45.752-24.4629L55.127 0L57.7637 0L30.6152-70.459L28.125-70.459ZM29.3457-67.1387L29.4434-67.1387L44.873-26.709L13.8672-26.709Z"/>
  </g>
  <line id="Baseline-M" style="fill:none;stroke:#27AAE1;opacity:1;stroke-width:0.5;" x1="263" x2="3036" y1="1126" y2="1126"/>
  <line id="Capline-M" style="fill:none;stroke:#27AAE1;opacity:1;stroke-width:0.5;" x1="263" x2="3036" y1="1055.54" y2="1055.54"/>
  <g id="H-reference" style="fill:#27AAE1;stroke:none;" transform="matrix(1 0 0 1 339 1556)">
   <path d="M0.976562 0L3.66211 0L12.9883-24.4629L45.752-24.4629L55.127 0L57.7637 0L30.6152-70.459L28.125-70.459ZM29.3457-67.1387L29.4434-67.1387L44.873-26.709L13.8672-26.709Z"/>
  </g>
  <line id="Baseline-L" style="fill:none;stroke:#27AAE1;opacity:1;stroke-width:0.5;" x1="263" x2="3036" y1="1556" y2="1556"/>
  <line id="Capline-L" style="fill:none;stroke:#27AAE1;opacity:1;stroke-width:0.5;" x1="263" x2="3036" y1="1485.54" y2="1485.54"/>
  <line id="left-margin" style="fill:none;stroke:#00AEEF;stroke-width:0.5;opacity:1.0;" x1="1417.64" x2="1417.64" y1="1030.79" y2="1150.12"/>
  <line id="right-margin" style="fill:none;stroke:#00AEEF;stroke-width:0.5;opacity:1.0;" x1="1482.05" x2="1482.05" y1="1030.79" y2="1150.12"/>
 </g>
 <g id="Symbols">
  <g id="Black-L" transform="matrix(1 0 0 1 2885.18 1556)">
   <path d="M33.7402-81.1035C33.7402-73.3887 39.7949-67.2363 47.5098-67.2363C55.2734-67.2363 61.2793-73.3887 61.2793-81.1035C61.2793-88.8672 55.2734-94.9707 47.5098-94.9707C39.7949-94.9707 33.7402-88.8672 33.7402-81.1035ZM16.0645 0.292969C16.1621 7.66602 21.1914 12.1582 29.1504 12.1582L67.2852 12.1582C75.2441 12.1582 80.2734 7.66602 80.3711 0.292969C80.4688-7.37305 75.4883-12.0117 67.2852-12.0117L62.1582-12.0117L62.1582-46.2891C62.1582-53.7598 57.3242-58.1543 49.9512-58.1543L30.6641-58.1543C22.4609-58.1543 17.4805-53.5156 17.627-45.8496C17.7246-38.4766 22.7051-33.9844 30.6641-33.9844L37.5488-33.9844L37.5488-12.0117L29.1504-12.0117C20.9473-12.0117 15.9668-7.37305 16.0645 0.292969Z"/>
  </g>
  <g id="Heavy-L" transform="matrix(1 0 0 1 2590.23 1556)">
   <path d="M33.252-80.4688C33.252-73.4863 38.7695-67.9688 45.752-67.9688C52.7344-67.9688 58.2031-73.4863 58.1543-80.4688C58.1543-87.5 52.7344-92.9688 45.752-92.9688C38.7695-92.9688 33.252-87.5 33.252-80.4688ZM16.0645 1.46484C16.1621 7.71484 20.4102 11.5723 27.1484 11.5723L65.7715 11.5723C72.5098 11.5723 76.7578 7.71484 76.8555 1.46484C76.9531-4.98047 72.7051-8.93555 65.7715-8.93555L58.6426-8.93555L58.6426-46.9727C58.6426-53.3691 54.4922-57.1777 48.1934-57.1777L28.8574-57.1777C21.9238-57.1777 17.6758-53.2227 17.7246-46.7773C17.8223-40.4785 22.0703-36.6699 28.8574-36.6699L37.5-36.6699L37.5-8.93555L27.1484-8.93555C20.2148-8.93555 15.9668-4.98047 16.0645 1.46484Z"/>
  </g>
  <g id="Bold-L" transform="matrix(1 0 0 1 2295.47 1556)">
   <path d="M32.7637-79.7363C32.7637-73.6328 37.6465-68.75 43.75-68.75C49.9023-68.75 54.7363-73.6328 54.6875-79.7363C54.6875-85.9375 49.9023-90.7715 43.75-90.7715C37.6465-90.7715 32.7637-85.9375 32.7637-79.7363ZM16.0645 2.7832C16.1133 7.76367 19.5801 10.8887 24.9512 10.8887L64.0625 10.8887C69.4336 10.8887 72.9004 7.76367 72.9492 2.7832C72.998-2.34375 69.5801-5.51758 64.0625-5.51758L54.6875-5.51758L54.6875-47.7539C54.6875-52.9297 51.3672-56.0547 46.2402-56.0547L26.8066-56.0547C21.2891-56.0547 17.8223-52.8809 17.8711-47.7539C17.9688-42.7734 21.3867-39.6484 26.8066-39.6484L37.4512-39.6484L37.4512-5.51758L24.9512-5.51758C19.4336-5.51758 16.0156-2.34375 16.0645 2.7832Z"/>
  </g>
  <g id="Semibold-L" transform="matrix(1 0 0 1 2000.13 1556)">
   <path d="M32.4219-79.248C32.4219-73.6816 36.8164-69.2871 42.3828-69.2871C47.9492-69.2871 52.3438-73.6816 52.2949-79.248C52.2949-84.8633 47.9492-89.2578 42.3828-89.2578C36.8164-89.2578 32.4219-84.8633 32.4219-79.248ZM16.0645 3.66211C16.1133 7.8125 18.9941 10.4492 23.4375 10.4492L62.8906 10.4492C67.334 10.4492 70.2148 7.8125 70.2148 3.66211C70.2637-0.537109 67.3828-3.17383 62.8906-3.17383L51.9531-3.17383L51.9531-48.291C51.9531-52.6367 49.1699-55.3223 44.9219-55.3223L25.3418-55.3223C20.8496-55.3223 17.9688-52.6855 18.0176-48.4863C18.0176-44.3359 20.8984-41.6992 25.3418-41.6992L37.4512-41.6992L37.4512-3.17383L23.4375-3.17383C18.8965-3.17383 16.0156-0.537109 16.0645 3.66211Z"/>
  </g>
  <g id="Medium-L" transform="matrix(1 0 0 1 1704.44 1556)">
   <path d="M32.1777-78.8574C32.1777-73.7793 36.2305-69.7266 41.3574-69.7266C46.4844-69.7266 50.4883-73.7793 50.4883-78.8574C50.4395-84.0332 46.4844-88.0859 41.3574-88.0859C36.2305-88.0859 32.1777-84.0332 32.1777-78.8574ZM16.0645 4.3457C16.0645 7.86133 18.5059 10.1074 22.2656 10.1074L61.9629 10.1074C65.7227 10.1074 68.1641 7.86133 68.1641 4.3457C68.2129 0.878906 65.7715-1.41602 61.9629-1.41602L49.9023-1.41602L49.9023-48.6816C49.9023-52.3926 47.5098-54.7363 43.8965-54.7363L24.2676-54.7363C20.5078-54.7363 18.0664-52.4902 18.0664-48.9746C18.1152-45.5078 20.5566-43.2129 24.2676-43.2129L37.4023-43.2129L37.4023-1.41602L22.2656-1.41602C18.5059-1.41602 16.0645 0.878906 16.0645 4.3457Z"/>
  </g>
  <g id="Regular-L" transform="matrix(1 0 0 1 1409.05 1556)">
   <path d="M31.8359-78.3691C31.8359-73.8281 35.4492-70.2637 39.9902-70.2637C44.5801-70.2637 48.1445-73.8281 48.0957-78.3691C48.0957-83.0078 44.5801-86.5723 39.9902-86.5723C35.4492-86.5723 31.8359-83.0078 31.8359-78.3691ZM16.0645 5.27344C16.0645 7.91016 17.9199 9.66797 20.752 9.66797L60.791 9.66797C63.623 9.66797 65.5273 7.91016 65.5273 5.27344C65.5273 2.68555 63.623 0.927734 60.791 0.927734L47.2168 0.927734L47.2168-49.2188C47.2168-52.0996 45.3613-54.0039 42.5781-54.0039L22.9004-54.0039C20.0684-54.0039 18.1641-52.2949 18.1641-49.6582C18.1641-47.0215 20.0684-45.2637 22.9004-45.2637L37.4023-45.2637L37.4023 0.927734L20.752 0.927734C17.9199 0.927734 16.0645 2.68555 16.0645 5.27344Z"/>
  </g>
  <g id="Light-L" transform="matrix(1 0 0 1 1113.39 1556)">
   <path d="M31.9824-77.7832C31.9824-73.9746 35.1074-70.9961 38.9648-70.9961C42.8223-70.9961 45.8984-73.9746 45.8496-77.7832C45.8008-81.7383 42.8223-84.7656 38.9648-84.7656C35.1074-84.7656 31.9824-81.7383 31.9824-77.7832ZM16.0645 6.29883C16.0645 8.34961 17.4805 9.66797 19.6289 9.66797L59.8633 9.66797C62.0117 9.66797 63.4277 8.34961 63.4277 6.29883C63.4277 4.3457 62.0117 3.02734 59.8633 3.02734L45.0684 3.02734L45.0684-49.9023C45.0684-52.0996 43.6523-53.5156 41.5039-53.5156L22.2168-53.5156C20.0195-53.5156 18.6035-52.1973 18.6035-50.1953C18.6035-48.1934 20.0195-46.8262 22.2168-46.8262L37.6953-46.8262L37.6953 3.02734L19.6289 3.02734C17.4805 3.02734 16.0645 4.3457 16.0645 6.29883Z"/>
  </g>
  <g id="Thin-L" transform="matrix(1 0 0 1 818.043 1556)">
   <path d="M32.2266-77.0508C32.2266-74.1699 34.668-71.9238 37.5977-71.9238C40.4785-71.9238 42.9199-74.1699 42.8223-77.0508C42.7734-80.0293 40.4785-82.373 37.5977-82.373C34.668-82.373 32.2266-80.0293 32.2266-77.0508ZM16.0645 7.71484C16.0645 8.88672 16.8457 9.66797 18.1641 9.66797L58.5938 9.66797C59.9121 9.66797 60.6934 8.88672 60.6934 7.71484C60.6934 6.54297 59.9121 5.76172 58.5938 5.76172L42.1387 5.76172L42.1387-50.7812C42.1387-52.0996 41.3574-52.8809 40.1367-52.8809L21.2891-52.8809C20.0195-52.8809 19.1895-52.0996 19.1895-50.9277C19.1895-49.7559 20.0195-48.9258 21.2891-48.9258L38.0859-48.9258L38.0859 5.76172L18.1641 5.76172C16.8457 5.76172 16.0645 6.54297 16.0645 7.71484Z"/>
  </g>
  <g id="Ultralight-L" transform="matrix(1 0 0 1 522.04 1556)">
   <path d="M32.373-76.6602C32.373-74.2188 34.4727-72.4121 36.8652-72.4121C39.3066-72.4121 41.4062-74.2188 41.3086-76.6602C41.2109-79.1504 39.3066-81.1523 36.8652-81.1523C34.4727-81.1523 32.373-79.1504 32.373-76.6602ZM16.0645 8.39844C16.0645 9.17969 16.5527 9.66797 17.3828 9.66797L57.959 9.66797C58.7891 9.66797 59.2773 9.17969 59.2773 8.39844C59.2773 7.66602 58.7891 7.12891 57.959 7.12891L40.6738 7.12891L40.6738-51.2695C40.6738-52.0996 40.1855-52.5879 39.4531-52.5879L20.8496-52.5879C20.0195-52.5879 19.4824-52.0508 19.4824-51.2695C19.4824-50.5371 20.0195-50 20.8496-50L38.2812-50L38.2812 7.12891L17.3828 7.12891C16.5527 7.12891 16.0645 7.66602 16.0645 8.39844Z"/>
  </g>
  <g id="Black-M" transform="matrix(1 0 0 1 2894.22 1126)">
   <path d="M26.8555-71.3379C26.8555-64.7461 32.0801-59.4727 38.6719-59.4727C45.3125-59.4727 50.4883-64.7461 50.4883-71.3379C50.4883-77.9785 45.3125-83.2031 38.6719-83.2031C32.0801-83.2031 26.8555-77.9785 26.8555-71.3379ZM12.4512-8.74023C12.5977-1.85547 17.1875 2.24609 24.6582 2.24609L53.7109 2.24609C61.1816 2.24609 65.7715-1.85547 65.918-8.74023C66.0645-15.918 61.4258-20.2148 53.7109-20.2148L51.7578-20.2148L51.7578-43.2617C51.7578-50.1465 47.3633-54.0527 40.5273-54.0527L25.8789-54.0527C18.1641-54.0527 13.5742-49.7559 13.7207-42.5293C13.8184-35.6445 18.457-31.543 25.8789-31.543L29.2969-31.543L29.2969-20.2148L24.6582-20.2148C16.9434-20.2148 12.3047-15.918 12.4512-8.74023Z"/>
  </g>
  <g id="Heavy-M" transform="matrix(1 0 0 1 2599.16 1126)">
   <path d="M26.3184-70.8008C26.3184-64.7949 31.0059-60.0586 36.9629-60.0586C43.0176-60.0586 47.6562-64.7949 47.6562-70.8008C47.6562-76.8066 43.0176-81.4941 36.9629-81.4941C31.0059-81.4941 26.3184-76.8066 26.3184-70.8008ZM12.4512-7.71484C12.5488-1.9043 16.4551 1.61133 22.8027 1.61133L52.2949 1.61133C58.5938 1.61133 62.5-1.9043 62.5977-7.71484C62.6953-13.7695 58.7891-17.4316 52.2949-17.4316L48.4863-17.4316L48.4863-43.8477C48.4863-49.707 44.6777-53.125 38.8672-53.125L24.0723-53.125C17.5781-53.125 13.623-49.4629 13.7207-43.4082C13.8184-37.5488 17.7734-34.0332 24.0723-34.0332L29.1992-34.0332L29.1992-17.4316L22.8027-17.4316C16.2598-17.4316 12.3535-13.7695 12.4512-7.71484Z"/>
  </g>
  <g id="Bold-M" transform="matrix(1 0 0 1 2304.28 1126)">
   <path d="M25.6836-70.166C25.6836-64.8926 29.8828-60.6934 35.1074-60.6934C40.4297-60.6934 44.5312-64.8926 44.5312-70.166C44.5312-75.4883 40.4297-79.6387 35.1074-79.6387C29.8828-79.6387 25.6836-75.4883 25.6836-70.166ZM12.4512-6.5918C12.5-1.95312 15.6738 0.927734 20.7031 0.927734L50.6836 0.927734C55.7129 0.927734 58.8867-1.95312 58.9355-6.5918C58.9844-11.377 55.8105-14.3066 50.6836-14.3066L44.8242-14.3066L44.8242-44.4824C44.8242-49.2188 41.748-52.0508 37.0605-52.0508L22.0215-52.0508C16.8945-52.0508 13.7207-49.1211 13.7695-44.3359C13.8184-39.6973 16.9922-36.8164 22.0215-36.8164L29.0527-36.8164L29.0527-14.3066L20.7031-14.3066C15.5762-14.3066 12.4023-11.377 12.4512-6.5918Z"/>
  </g>
  <g id="Semibold-M" transform="matrix(1 0 0 1 2008.84 1126)">
   <path d="M25.293-69.7266C25.293-64.9902 29.0527-61.1816 33.8379-61.1816C38.623-61.1816 42.3828-64.9902 42.3828-69.7266C42.334-74.5605 38.623-78.3203 33.8379-78.3203C29.0527-78.3203 25.293-74.5605 25.293-69.7266ZM12.4512-5.81055C12.5-2.00195 15.1367 0.439453 19.2383 0.439453L49.6094 0.439453C53.7109 0.439453 56.3477-2.00195 56.3965-5.81055C56.4453-9.7168 53.8086-12.1582 49.6094-12.1582L42.2852-12.1582L42.2852-44.9219C42.2852-48.877 39.6973-51.3184 35.791-51.3184L20.6055-51.3184C16.4062-51.3184 13.7695-48.877 13.7695-44.9707C13.8184-41.1621 16.4551-38.7207 20.6055-38.7207L28.9551-38.7207L28.9551-12.1582L19.2383-12.1582C15.0391-12.1582 12.4023-9.7168 12.4512-5.81055Z"/>
  </g>
  <g id="Medium-M" transform="matrix(1 0 0 1 1713.11 1126)">
   <path d="M24.9512-69.4336C24.9512-65.0391 28.4668-61.5234 32.8613-61.5234C37.3047-61.5234 40.7227-65.0391 40.7227-69.4336C40.7227-73.877 37.3047-77.3438 32.8613-77.3438C28.4668-77.3438 24.9512-73.877 24.9512-69.4336ZM12.4512-5.22461C12.4512-2.00195 14.6973 0.0488281 18.1641 0.0488281L48.7305 0.0488281C52.1973 0.0488281 54.4434-2.00195 54.4434-5.22461C54.4922-8.44727 52.2461-10.498 48.7305-10.498L40.332-10.498L40.332-45.2148C40.332-48.6328 38.1348-50.7812 34.8145-50.7812L19.5312-50.7812C16.0156-50.7812 13.7695-48.7305 13.8184-45.459C13.8184-42.2852 16.0645-40.1855 19.5312-40.1855L28.9062-40.1855L28.9062-10.498L18.1641-10.498C14.6484-10.498 12.4512-8.44727 12.4512-5.22461Z"/>
  </g>
  <g id="Regular-M" transform="matrix(1 0 0 1 1417.64 1126)">
   <path d="M24.5605-68.9941C24.5605-65.0879 27.6855-61.9629 31.5918-61.9629C35.5469-61.9629 38.5742-65.0879 38.5742-68.9941C38.5742-72.9492 35.5469-76.0742 31.5918-76.0742C27.6855-76.0742 24.5605-72.9492 24.5605-68.9941ZM12.4512-4.44336C12.4512-2.05078 14.1602-0.439453 16.748-0.439453L47.6562-0.439453C50.2441-0.439453 51.9531-2.05078 51.9531-4.44336C51.9531-6.78711 50.2441-8.39844 47.6562-8.39844L37.8418-8.39844L37.8418-45.6543C37.8418-48.291 36.1328-50.0488 33.5938-50.0488L18.1152-50.0488C15.5762-50.0488 13.8184-48.4863 13.8184-46.1426C13.8184-43.7012 15.5762-42.0898 18.1152-42.0898L28.8086-42.0898L28.8086-8.39844L16.748-8.39844C14.1602-8.39844 12.4512-6.78711 12.4512-4.44336Z"/>
  </g>
  <g id="Light-M" transform="matrix(1 0 0 1 1121.86 1126)">
   <path d="M24.707-68.457C24.707-65.1855 27.3438-62.5977 30.6641-62.5977C33.9844-62.5977 36.5723-65.1855 36.5234-68.457C36.5234-71.8262 33.9844-74.4629 30.6641-74.4629C27.3438-74.4629 24.707-71.8262 24.707-68.457ZM12.4512-3.51562C12.4512-1.66016 13.7695-0.439453 15.7227-0.439453L46.8262-0.439453C48.7793-0.439453 50.0977-1.66016 50.0977-3.51562C50.0977-5.32227 48.7793-6.54297 46.8262-6.54297L35.8887-6.54297L35.8887-46.2891C35.8887-48.291 34.5703-49.6094 32.666-49.6094L17.5293-49.6094C15.5273-49.6094 14.209-48.4375 14.209-46.582C14.209-44.7754 15.5273-43.5059 17.5293-43.5059L29.0527-43.5059L29.0527-6.54297L15.7227-6.54297C13.7695-6.54297 12.4512-5.32227 12.4512-3.51562Z"/>
  </g>
  <g id="Thin-M" transform="matrix(1 0 0 1 826.369 1126)">
   <path d="M24.9512-67.8223C24.9512-65.332 26.9531-63.4766 29.4434-63.4766C31.8848-63.4766 33.8867-65.332 33.8379-67.8223C33.7891-70.3125 31.8848-72.3145 29.4434-72.3145C26.9531-72.3145 24.9512-70.3125 24.9512-67.8223ZM12.4512-2.24609C12.4512-1.17188 13.1836-0.439453 14.4043-0.439453L45.7031-0.439453C46.875-0.439453 47.6562-1.17188 47.6562-2.24609C47.6562-3.32031 46.875-4.05273 45.7031-4.05273L33.3008-4.05273L33.3008-47.0703C33.3008-48.291 32.5195-49.0723 31.3965-49.0723L16.6992-49.0723C15.5273-49.0723 14.7461-48.3398 14.7461-47.2168C14.7461-46.1426 15.5273-45.4102 16.6992-45.4102L29.4434-45.4102L29.4434-4.05273L14.4043-4.05273C13.1836-4.05273 12.4512-3.32031 12.4512-2.24609Z"/>
  </g>
  <g id="Ultralight-M" transform="matrix(1 0 0 1 530.292 1126)">
   <path d="M25.0488-67.4316C25.0488-65.4297 26.7578-63.916 28.8086-63.916C30.8105-63.916 32.5195-65.4297 32.4707-67.4316C32.4219-69.5312 30.8105-71.1914 28.8086-71.1914C26.7578-71.1914 25.0488-69.5312 25.0488-67.4316ZM12.4512-1.61133C12.4512-0.878906 12.9395-0.439453 13.7207-0.439453L45.1172-0.439453C45.8984-0.439453 46.3867-0.878906 46.3867-1.61133C46.3867-2.34375 45.8984-2.83203 45.1172-2.83203L31.9824-2.83203L31.9824-47.5098C31.9824-48.291 31.4941-48.7793 30.7617-48.7793L16.2598-48.7793C15.5273-48.7793 15.0391-48.291 15.0391-47.5586C15.0391-46.8262 15.5273-46.3867 16.2598-46.3867L29.5898-46.3867L29.5898-2.83203L13.7207-2.83203C12.9395-2.83203 12.4512-2.34375 12.4512-1.61133Z"/>
  </g>
  <g id="Black-S" transform="matrix(1 0 0 1 2902.81 696)">
   <path d="M20.9961-63.4766C20.9961-58.3496 25.0488-54.248 30.1758-54.248C35.3516-54.248 39.3555-58.3496 39.3555-63.4766C39.3555-68.6523 35.3516-72.7051 30.1758-72.7051C25.0488-72.7051 20.9961-68.6523 20.9961-63.4766ZM9.76562-14.4043C9.86328-9.08203 13.4277-5.9082 19.1895-5.9082L41.9922-5.9082C47.7539-5.9082 51.3184-9.08203 51.416-14.4043C51.5137-19.9707 47.9492-23.291 41.9922-23.291L40.332-23.291L40.332-41.5527C40.332-46.875 36.9141-49.9023 31.6406-49.9023L20.166-49.9023C14.209-49.9023 10.6445-46.582 10.7422-41.0156C10.8398-35.6934 14.4043-32.5195 20.166-32.5195L22.9492-32.5195L22.9492-23.291L19.1895-23.291C13.2324-23.291 9.66797-19.9707 9.76562-14.4043Z"/>
  </g>
  <g id="Heavy-S" transform="matrix(1 0 0 1 2607.25 696)">
   <path d="M20.5566-63.1348C20.5566-58.3984 24.2676-54.6387 29.0039-54.6387C33.7402-54.6387 37.4512-58.3984 37.4512-63.1348C37.4512-67.8711 33.7402-71.582 29.0039-71.582C24.2676-71.582 20.5566-67.8711 20.5566-63.1348ZM9.76562-13.7207C9.86328-9.17969 12.9395-6.39648 17.8711-6.39648L41.0156-6.39648C45.9473-6.39648 49.0234-9.17969 49.1211-13.7207C49.1699-18.5059 46.0938-21.3379 41.0156-21.3379L38.0371-21.3379L38.0371-41.9434C38.0371-46.5332 35.0586-49.2188 30.4688-49.2188L18.8477-49.2188C13.7207-49.2188 10.6445-46.3379 10.7422-41.6016C10.791-37.0117 13.8672-34.2773 18.8477-34.2773L22.8516-34.2773L22.8516-21.3379L17.8711-21.3379C12.793-21.3379 9.7168-18.5059 9.76562-13.7207Z"/>
  </g>
  <g id="Bold-S" transform="matrix(1 0 0 1 2311.83 696)">
   <path d="M20.0684-62.6953C20.0684-58.4473 23.4375-55.0781 27.6855-55.0781C31.9824-55.0781 35.3027-58.4473 35.3027-62.6953C35.3027-66.9922 31.9824-70.3613 27.6855-70.3613C23.4375-70.3613 20.0684-66.9922 20.0684-62.6953ZM9.76562-12.9883C9.81445-9.22852 12.3535-6.93359 16.4062-6.93359L39.8926-6.93359C43.8965-6.93359 46.4844-9.22852 46.5332-12.9883C46.582-16.8457 43.9941-19.1895 39.8926-19.1895L35.4492-19.1895L35.4492-42.334C35.4492-46.1914 33.0078-48.4863 29.1992-48.4863L17.334-48.4863C13.1836-48.4863 10.6445-46.0938 10.6934-42.2852C10.7422-38.5254 13.2812-36.2305 17.334-36.2305L22.7051-36.2305L22.7051-19.1895L16.4062-19.1895C12.2559-19.1895 9.7168-16.8457 9.76562-12.9883Z"/>
  </g>
  <g id="Semibold-S" transform="matrix(1 0 0 1 2016.02 696)">
   <path d="M19.7266-62.4023C19.7266-58.4961 22.8516-55.3711 26.7578-55.3711C30.7617-55.3711 33.8379-58.4961 33.7891-62.4023C33.7891-66.4062 30.7617-69.4824 26.7578-69.4824C22.8516-69.4824 19.7266-66.4062 19.7266-62.4023ZM9.76562-12.4512C9.81445-9.32617 11.9629-7.32422 15.3809-7.32422L39.1113-7.32422C42.5293-7.32422 44.6777-9.32617 44.7266-12.4512C44.7754-15.6738 42.5781-17.6758 39.1113-17.6758L33.6914-17.6758L33.6914-42.627C33.6914-45.8984 31.543-47.9492 28.3203-47.9492L16.3086-47.9492C12.8418-47.9492 10.6445-45.9473 10.6934-42.7246C10.6934-39.5508 12.8906-37.5488 16.3086-37.5488L22.6074-37.5488L22.6074-17.6758L15.3809-17.6758C11.9141-17.6758 9.7168-15.6738 9.76562-12.4512Z"/>
  </g>
  <g id="Medium-S" transform="matrix(1 0 0 1 1719.99 696)">
   <path d="M19.4824-62.207C19.4824-58.5449 22.4121-55.5664 26.0742-55.5664C29.834-55.5664 32.7148-58.5449 32.666-62.207C32.666-65.9668 29.834-68.8477 26.0742-68.8477C22.4121-68.8477 19.4824-65.9668 19.4824-62.207ZM9.76562-12.0605C9.76562-9.375 11.6699-7.56836 14.5996-7.56836L38.5254-7.56836C41.4551-7.56836 43.3594-9.375 43.3594-12.0605C43.4082-14.7949 41.5039-16.5527 38.5254-16.5527L32.373-16.5527L32.373-42.8223C32.373-45.7031 30.4688-47.5586 27.6367-47.5586L15.5273-47.5586C12.5488-47.5586 10.6445-45.8008 10.6934-43.0664C10.6934-40.332 12.5977-38.5742 15.5273-38.5742L22.5586-38.5742L22.5586-16.5527L14.5996-16.5527C11.6699-16.5527 9.76562-14.7949 9.76562-12.0605Z"/>
  </g>
  <g id="Regular-S" transform="matrix(1 0 0 1 1424.16 696)">
   <path d="M19.1895-61.9141C19.1895-58.5449 21.8262-55.8594 25.1953-55.8594C28.6133-55.8594 31.25-58.5449 31.25-61.9141C31.2012-65.332 28.6133-68.0176 25.1953-68.0176C21.8262-68.0176 19.1895-65.332 19.1895-61.9141ZM9.76562-11.5723C9.76562-9.42383 11.3281-7.95898 13.623-7.95898L37.7441-7.95898C40.0391-7.95898 41.6016-9.42383 41.6016-11.5723C41.6016-13.6719 40.0391-15.0879 37.7441-15.0879L30.6152-15.0879L30.6152-43.1152C30.6152-45.459 29.0527-47.0703 26.7578-47.0703L14.502-47.0703C12.207-47.0703 10.6445-45.6543 10.6445-43.5547C10.6445-41.3574 12.207-39.9414 14.502-39.9414L22.4609-39.9414L22.4609-15.0879L13.623-15.0879C11.3281-15.0879 9.76562-13.6719 9.76562-11.5723Z"/>
  </g>
  <g id="Light-S" transform="matrix(1 0 0 1 1128.28 696)">
   <path d="M19.3359-61.4746C19.3359-58.6426 21.582-56.4453 24.3652-56.4453C27.1973-56.4453 29.4434-58.6426 29.4434-61.4746C29.3945-64.3555 27.1973-66.5527 24.3652-66.5527C21.582-66.5527 19.3359-64.3555 19.3359-61.4746ZM9.76562-10.7422C9.76562-9.08203 10.9375-7.95898 12.6953-7.95898L37.0117-7.95898C38.7695-7.95898 39.9414-9.08203 39.9414-10.7422C39.9414-12.3535 38.7695-13.4277 37.0117-13.4277L28.8574-13.4277L28.8574-43.6523C28.8574-45.459 27.6855-46.6797 25.9277-46.6797L13.9648-46.6797C12.207-46.6797 10.9863-45.6055 10.9863-43.9453C10.9863-42.2852 12.207-41.1621 13.9648-41.1621L22.7051-41.1621L22.7051-13.4277L12.6953-13.4277C10.9375-13.4277 9.76562-12.3535 9.76562-10.7422Z"/>
  </g>
  <g id="Thin-S" transform="matrix(1 0 0 1 832.643 696)">
   <path d="M19.4824-60.8887C19.4824-58.7891 21.2402-57.1777 23.291-57.1777C25.3906-57.1777 27.0996-58.7891 27.0508-60.8887C27.002-62.9883 25.3906-64.6973 23.291-64.6973C21.2402-64.6973 19.4824-62.9883 19.4824-60.8887ZM9.76562-9.61914C9.76562-8.64258 10.4492-7.95898 11.5234-7.95898L36.0352-7.95898C37.1094-7.95898 37.793-8.64258 37.793-9.61914C37.793-10.6445 37.1094-11.2793 36.0352-11.2793L26.6113-11.2793L26.6113-44.3848C26.6113-45.459 25.8789-46.1914 24.8535-46.1914L13.2324-46.1914C12.1582-46.1914 11.4746-45.5078 11.4746-44.5312C11.4746-43.5059 12.1582-42.8223 13.2324-42.8223L22.998-42.8223L22.998-11.2793L11.5234-11.2793C10.4492-11.2793 9.76562-10.6445 9.76562-9.61914Z"/>
  </g>
  <g id="Ultralight-S" transform="matrix(1 0 0 1 536.493 696)">
   <path d="M19.6289-60.5469C19.6289-58.8867 21.0449-57.5684 22.7539-57.5684C24.4141-57.5684 25.8789-58.8867 25.8301-60.5469C25.7812-62.3047 24.4141-63.7207 22.7539-63.7207C21.0449-63.7207 19.6289-62.3047 19.6289-60.5469ZM9.76562-9.08203C9.76562-8.39844 10.2051-7.95898 10.9375-7.95898L35.498-7.95898C36.2305-7.95898 36.6699-8.39844 36.6699-9.08203C36.6699-9.7168 36.2305-10.1562 35.498-10.1562L25.4395-10.1562L25.4395-44.7266C25.4395-45.459 24.9512-45.8984 24.3164-45.8984L12.8906-45.8984C12.1582-45.8984 11.7188-45.459 11.7188-44.8242C11.7188-44.1406 12.1582-43.7012 12.8906-43.7012L23.1445-43.7012L23.1445-10.1562L10.9375-10.1562C10.2051-10.1562 9.76562-9.7168 9.76562-9.08203Z"/>
  </g>
 </g>
</svg>
