<?xml version="1.0" encoding="UTF-8"?>
<!--Generator: Apple Native CoreSVG 149-->
<!DOCTYPE svg
PUBLIC "-//W3C//DTD SVG 1.1//EN"
       "http://www.w3.org/Graphics/SVG/1.1/DTD/svg11.dtd">
<svg version="1.1" xmlns="http://www.w3.org/2000/svg" xmlns:xlink="http://www.w3.org/1999/xlink" width="3300" height="2200">
 <!--glyph: "uni10028A.medium", point size: 100.000000, font version: "Version 16.0d18e1", template writer version: "8"-->
 <g id="Notes">
  <rect height="2200" id="artboard" style="fill:white;opacity:1" width="3300" x="0" y="0"/>
  <line id="" style="fill:none;stroke:black;opacity:1;stroke-width:0.5;" x1="263" x2="3036" y1="292" y2="292"/>
  <text style="stroke:none;fill:black;font-family:-apple-system,&quot;SF Pro Display&quot;,&quot;SF Pro Text&quot;,Helvetica,sans-serif;font-weight:bold;" transform="matrix(1 0 0 1 263 322)">Weight/Scale Variations</text>
  <text style="stroke:none;fill:black;font-family:-apple-system,&quot;SF Pro Display&quot;,&quot;SF Pro Text&quot;,Helvetica,sans-serif;text-anchor:middle;" transform="matrix(1 0 0 1 559.711 322)">Ultralight</text>
  <text style="stroke:none;fill:black;font-family:-apple-system,&quot;SF Pro Display&quot;,&quot;SF Pro Text&quot;,Helvetica,sans-serif;text-anchor:middle;" transform="matrix(1 0 0 1 856.422 322)">Thin</text>
  <text style="stroke:none;fill:black;font-family:-apple-system,&quot;SF Pro Display&quot;,&quot;SF Pro Text&quot;,Helvetica,sans-serif;text-anchor:middle;" transform="matrix(1 0 0 1 1153.13 322)">Light</text>
  <text style="stroke:none;fill:black;font-family:-apple-system,&quot;SF Pro Display&quot;,&quot;SF Pro Text&quot;,Helvetica,sans-serif;text-anchor:middle;" transform="matrix(1 0 0 1 1449.84 322)">Regular</text>
  <text style="stroke:none;fill:black;font-family:-apple-system,&quot;SF Pro Display&quot;,&quot;SF Pro Text&quot;,Helvetica,sans-serif;text-anchor:middle;" transform="matrix(1 0 0 1 1746.56 322)">Medium</text>
  <text style="stroke:none;fill:black;font-family:-apple-system,&quot;SF Pro Display&quot;,&quot;SF Pro Text&quot;,Helvetica,sans-serif;text-anchor:middle;" transform="matrix(1 0 0 1 2043.27 322)">Semibold</text>
  <text style="stroke:none;fill:black;font-family:-apple-system,&quot;SF Pro Display&quot;,&quot;SF Pro Text&quot;,Helvetica,sans-serif;text-anchor:middle;" transform="matrix(1 0 0 1 2339.98 322)">Bold</text>
  <text style="stroke:none;fill:black;font-family:-apple-system,&quot;SF Pro Display&quot;,&quot;SF Pro Text&quot;,Helvetica,sans-serif;text-anchor:middle;" transform="matrix(1 0 0 1 2636.69 322)">Heavy</text>
  <text style="stroke:none;fill:black;font-family:-apple-system,&quot;SF Pro Display&quot;,&quot;SF Pro Text&quot;,Helvetica,sans-serif;text-anchor:middle;" transform="matrix(1 0 0 1 2933.4 322)">Black</text>
  <line id="" style="fill:none;stroke:black;opacity:1;stroke-width:0.5;" x1="263" x2="3036" y1="1903" y2="1903"/>
  <g id="" transform="matrix(1 0 0 1 263 1933)">
   <path d="M9.24805 0.830078C13.5547 0.830078 17.1387-2.74414 17.1387-7.05078C17.1387-11.3574 13.5449-14.9316 9.23828-14.9316C4.94141-14.9316 1.36719-11.3574 1.36719-7.05078C1.36719-2.74414 4.95117 0.830078 9.24805 0.830078ZM9.24805-0.654297C5.70312-0.654297 2.87109-3.49609 2.87109-7.05078C2.87109-10.6055 5.69336-13.4473 9.23828-13.4473C12.793-13.4473 15.6348-10.6055 15.6445-7.05078C15.6543-3.49609 12.8027-0.654297 9.24805-0.654297ZM6.39648-6.31836L8.50586-6.31836L8.50586-4.19922C8.50586-3.75977 8.79883-3.45703 9.22852-3.45703C9.67773-3.45703 9.9707-3.75977 9.9707-4.19922L9.9707-6.31836L12.0996-6.31836C12.5391-6.31836 12.8418-6.61133 12.8418-7.04102C12.8418-7.48047 12.5391-7.7832 12.0996-7.7832L9.9707-7.7832L9.9707-9.89258C9.9707-10.3418 9.67773-10.6445 9.22852-10.6445C8.79883-10.6445 8.50586-10.3418 8.50586-9.89258L8.50586-7.7832L6.39648-7.7832C5.94727-7.7832 5.64453-7.48047 5.64453-7.04102C5.64453-6.61133 5.94727-6.31836 6.39648-6.31836Z"/>
  </g>
  <g id="" transform="matrix(1 0 0 1 281.506 1933)">
   <path d="M11.709 2.91016C17.1582 2.91016 21.6699-1.61133 21.6699-7.05078C21.6699-12.5 17.1484-17.0117 11.6992-17.0117C6.25977-17.0117 1.74805-12.5 1.74805-7.05078C1.74805-1.61133 6.26953 2.91016 11.709 2.91016ZM11.709 1.25C7.09961 1.25 3.41797-2.44141 3.41797-7.05078C3.41797-11.6602 7.08984-15.3516 11.6992-15.3516C16.3086-15.3516 20-11.6602 20.0098-7.05078C20.0195-2.44141 16.3184 1.25 11.709 1.25ZM7.98828-6.23047L10.8789-6.23047L10.8789-3.32031C10.8789-2.83203 11.2109-2.5 11.6895-2.5C12.1777-2.5 12.5195-2.83203 12.5195-3.32031L12.5195-6.23047L15.4297-6.23047C15.918-6.23047 16.25-6.5625 16.25-7.04102C16.25-7.5293 15.918-7.87109 15.4297-7.87109L12.5195-7.87109L12.5195-10.7617C12.5195-11.2695 12.1777-11.6016 11.6895-11.6016C11.2109-11.6016 10.8789-11.2598 10.8789-10.7617L10.8789-7.87109L7.98828-7.87109C7.48047-7.87109 7.14844-7.5293 7.14844-7.04102C7.14844-6.5625 7.49023-6.23047 7.98828-6.23047Z"/>
  </g>
  <g id="" transform="matrix(1 0 0 1 304.924 1933)">
   <path d="M14.9707 5.66406C21.9336 5.66406 27.6953-0.0976562 27.6953-7.05078C27.6953-14.0137 21.9238-19.7754 14.9609-19.7754C8.00781-19.7754 2.25586-14.0137 2.25586-7.05078C2.25586-0.0976562 8.01758 5.66406 14.9707 5.66406ZM14.9707 3.84766C8.93555 3.84766 4.08203-1.01562 4.08203-7.05078C4.08203-13.0957 8.92578-17.9492 14.9609-17.9492C21.0059-17.9492 25.8594-13.0957 25.8691-7.05078C25.8789-1.01562 21.0156 3.84766 14.9707 3.84766ZM10.0586-6.14258L14.0625-6.14258L14.0625-2.12891C14.0625-1.5918 14.4336-1.2207 14.9512-1.2207C15.4883-1.2207 15.8594-1.5918 15.8594-2.12891L15.8594-6.14258L19.8828-6.14258C20.4102-6.14258 20.791-6.51367 20.791-7.03125C20.791-7.56836 20.4199-7.94922 19.8828-7.94922L15.8594-7.94922L15.8594-11.9531C15.8594-12.5098 15.4883-12.8809 14.9512-12.8809C14.4336-12.8809 14.0625-12.5 14.0625-11.9531L14.0625-7.94922L10.0586-7.94922C9.50195-7.94922 9.13086-7.56836 9.13086-7.03125C9.13086-6.51367 9.51172-6.14258 10.0586-6.14258Z"/>
  </g>
  <text style="stroke:none;fill:black;font-family:-apple-system,&quot;SF Pro Display&quot;,&quot;SF Pro Text&quot;,Helvetica,sans-serif;font-weight:bold;" transform="matrix(1 0 0 1 263 1953)">Design Variations</text>
  <text style="stroke:none;fill:black;font-family:-apple-system,&quot;SF Pro Display&quot;,&quot;SF Pro Text&quot;,Helvetica,sans-serif;" transform="matrix(1 0 0 1 263 1971)">Symbols are supported in up to nine weights and three scales.</text>
  <text style="stroke:none;fill:black;font-family:-apple-system,&quot;SF Pro Display&quot;,&quot;SF Pro Text&quot;,Helvetica,sans-serif;" transform="matrix(1 0 0 1 263 1989)">For optimal layout with text and other symbols, vertically align</text>
  <text style="stroke:none;fill:black;font-family:-apple-system,&quot;SF Pro Display&quot;,&quot;SF Pro Text&quot;,Helvetica,sans-serif;" transform="matrix(1 0 0 1 263 2007)">symbols with the adjacent text.</text>
  <line id="" style="fill:none;stroke:#00AEEF;stroke-width:0.5;opacity:1.0;" x1="776" x2="776" y1="1919" y2="1933"/>
  <g id="" transform="matrix(1 0 0 1 776 1933)">
   <path d="M3.31055 0.126953C3.82812 0.126953 4.08203-0.0683594 4.26758-0.605469L5.52734-4.0625L11.2891-4.0625L12.5488-0.605469C12.7344-0.0683594 12.9883 0.126953 13.4961 0.126953C14.0137 0.126953 14.3457-0.185547 14.3457-0.673828C14.3457-0.839844 14.3164-0.986328 14.2383-1.20117L9.6582-13.3887C9.43359-13.9941 9.0332-14.2871 8.4082-14.2871C7.80273-14.2871 7.39258-13.9941 7.17773-13.3984L2.59766-1.19141C2.51953-0.976562 2.49023-0.830078 2.49023-0.664062C2.49023-0.175781 2.80273 0.126953 3.31055 0.126953ZM6.00586-5.53711L8.37891-12.1094L8.42773-12.1094L10.8008-5.53711Z"/>
  </g>
  <line id="" style="fill:none;stroke:#00AEEF;stroke-width:0.5;opacity:1.0;" x1="792.836" x2="792.836" y1="1919" y2="1933"/>
  <text style="stroke:none;fill:black;font-family:-apple-system,&quot;SF Pro Display&quot;,&quot;SF Pro Text&quot;,Helvetica,sans-serif;font-weight:bold;" transform="matrix(1 0 0 1 776 1953)">Margins</text>
  <text style="stroke:none;fill:black;font-family:-apple-system,&quot;SF Pro Display&quot;,&quot;SF Pro Text&quot;,Helvetica,sans-serif;" transform="matrix(1 0 0 1 776 1971)">Leading and trailing margins on the left and right side of each symbol</text>
  <text style="stroke:none;fill:black;font-family:-apple-system,&quot;SF Pro Display&quot;,&quot;SF Pro Text&quot;,Helvetica,sans-serif;" transform="matrix(1 0 0 1 776 1989)">can be adjusted by modifying the x-location of the margin guidelines.</text>
  <text style="stroke:none;fill:black;font-family:-apple-system,&quot;SF Pro Display&quot;,&quot;SF Pro Text&quot;,Helvetica,sans-serif;" transform="matrix(1 0 0 1 776 2007)">Modifications are automatically applied proportionally to all</text>
  <text style="stroke:none;fill:black;font-family:-apple-system,&quot;SF Pro Display&quot;,&quot;SF Pro Text&quot;,Helvetica,sans-serif;" transform="matrix(1 0 0 1 776 2025)">scales and weights.</text>
  <g id="" transform="matrix(1 0 0 1 1289 1933)">
   <path d="M2.8418 1.86523L4.54102 3.57422C5.40039 4.44336 6.38672 4.38477 7.31445 3.35938L17.4902-7.85156C17.7539-7.76367 18.0273-7.7832 18.3398-7.8418L19.4043-8.03711L20.0684-7.36328L20.0293-6.80664C19.9902-6.30859 20.1172-5.92773 20.6055-5.44922L21.3672-4.70703C21.8457-4.22852 22.4609-4.19922 22.9297-4.66797L25.8398-7.58789C26.3086-8.05664 26.2891-8.65234 25.8105-9.13086L25.0391-9.89258C24.5605-10.3711 24.1895-10.5273 23.7109-10.4883L23.1348-10.4395L22.4902-11.0742L22.7344-12.1973C22.8613-12.7637 22.7051-13.2031 22.1191-13.7891L19.9219-15.9766C16.582-19.2969 12.1484-19.2188 9.25781-16.3281C8.83789-15.918 8.80859-15.3418 9.04297-14.9512C9.27734-14.5898 9.73633-14.3555 10.3809-14.5215C11.8457-14.8633 13.3691-14.9219 14.7949-13.9844L14.209-12.5293C14.0137-12.0508 13.9844-11.6504 14.1113-11.2891L3.04688-0.898438C2.06055 0.0195312 1.98242 0.996094 2.8418 1.86523ZM10.752-15.957C13.1836-17.7344 16.4746-17.4316 18.7012-15.2051L21.1328-12.793C21.3672-12.5586 21.4062-12.373 21.3379-12.0312L21.0156-10.5469L22.5195-9.0625L23.5059-9.12109C23.7598-9.13086 23.8379-9.11133 24.0332-8.91602L24.6094-8.33984L22.168-5.89844L21.5918-6.47461C21.3965-6.66992 21.3672-6.74805 21.377-7.01172L21.4453-7.98828L19.9512-9.47266L18.4277-9.21875C18.1055-9.15039 17.959-9.17969 17.7148-9.41406L15.7129-11.416C15.459-11.6504 15.4297-11.8164 15.5859-12.1875L16.4648-14.2773C14.9023-15.7324 12.8711-16.3574 10.8398-15.7617C10.6836-15.7227 10.625-15.8496 10.752-15.957ZM5.27344 2.30469L4.10156 1.14258C3.63281 0.683594 3.74023 0.341797 4.14062-0.0195312L14.9512-10.1953L16.416-8.71094L6.42578 2.27539C6.07422 2.67578 5.74219 2.77344 5.27344 2.30469Z"/>
  </g>
  <text style="stroke:none;fill:black;font-family:-apple-system,&quot;SF Pro Display&quot;,&quot;SF Pro Text&quot;,Helvetica,sans-serif;font-weight:bold;" transform="matrix(1 0 0 1 1289 1953)">Exporting</text>
  <text style="stroke:none;fill:black;font-family:-apple-system,&quot;SF Pro Display&quot;,&quot;SF Pro Text&quot;,Helvetica,sans-serif;" transform="matrix(1 0 0 1 1289 1971)">Symbols should be outlined when exporting to ensure the</text>
  <text style="stroke:none;fill:black;font-family:-apple-system,&quot;SF Pro Display&quot;,&quot;SF Pro Text&quot;,Helvetica,sans-serif;" transform="matrix(1 0 0 1 1289 1989)">design is preserved when submitting to Xcode.</text>
  <text id="template-version" style="stroke:none;fill:black;font-family:-apple-system,&quot;SF Pro Display&quot;,&quot;SF Pro Text&quot;,Helvetica,sans-serif;text-anchor:end;" transform="matrix(1 0 0 1 3036 1933)">Template v.2.0</text>
  <text style="stroke:none;fill:black;font-family:-apple-system,&quot;SF Pro Display&quot;,&quot;SF Pro Text&quot;,Helvetica,sans-serif;text-anchor:end;" transform="matrix(1 0 0 1 3036 1951)">Requires Xcode 12 or greater</text>
  <text style="stroke:none;fill:black;font-family:-apple-system,&quot;SF Pro Display&quot;,&quot;SF Pro Text&quot;,Helvetica,sans-serif;text-anchor:end;" transform="matrix(1 0 0 1 3036 1969)">Generated from backward.fill</text>
  <text style="stroke:none;fill:black;font-family:-apple-system,&quot;SF Pro Display&quot;,&quot;SF Pro Text&quot;,Helvetica,sans-serif;text-anchor:end;" transform="matrix(1 0 0 1 3036 1987)">Typeset at 100 points</text>
  <text style="stroke:none;fill:black;font-family:-apple-system,&quot;SF Pro Display&quot;,&quot;SF Pro Text&quot;,Helvetica,sans-serif;" transform="matrix(1 0 0 1 263 726)">Small</text>
  <text style="stroke:none;fill:black;font-family:-apple-system,&quot;SF Pro Display&quot;,&quot;SF Pro Text&quot;,Helvetica,sans-serif;" transform="matrix(1 0 0 1 263 1156)">Medium</text>
  <text style="stroke:none;fill:black;font-family:-apple-system,&quot;SF Pro Display&quot;,&quot;SF Pro Text&quot;,Helvetica,sans-serif;" transform="matrix(1 0 0 1 263 1586)">Large</text>
 </g>
 <g id="Guides">
  <g id="H-reference" style="fill:#27AAE1;stroke:none;" transform="matrix(1 0 0 1 339 696)">
   <path d="M0.976562 0L3.66211 0L12.9883-24.4629L45.752-24.4629L55.127 0L57.7637 0L30.6152-70.459L28.125-70.459ZM29.3457-67.1387L29.4434-67.1387L44.873-26.709L13.8672-26.709Z"/>
  </g>
  <line id="Baseline-S" style="fill:none;stroke:#27AAE1;opacity:1;stroke-width:0.5;" x1="263" x2="3036" y1="696" y2="696"/>
  <line id="Capline-S" style="fill:none;stroke:#27AAE1;opacity:1;stroke-width:0.5;" x1="263" x2="3036" y1="625.541" y2="625.541"/>
  <g id="H-reference" style="fill:#27AAE1;stroke:none;" transform="matrix(1 0 0 1 339 1126)">
   <path d="M0.976562 0L3.66211 0L12.9883-24.4629L45.752-24.4629L55.127 0L57.7637 0L30.6152-70.459L28.125-70.459ZM29.3457-67.1387L29.4434-67.1387L44.873-26.709L13.8672-26.709Z"/>
  </g>
  <line id="Baseline-M" style="fill:none;stroke:#27AAE1;opacity:1;stroke-width:0.5;" x1="263" x2="3036" y1="1126" y2="1126"/>
  <line id="Capline-M" style="fill:none;stroke:#27AAE1;opacity:1;stroke-width:0.5;" x1="263" x2="3036" y1="1055.54" y2="1055.54"/>
  <g id="H-reference" style="fill:#27AAE1;stroke:none;" transform="matrix(1 0 0 1 339 1556)">
   <path d="M0.976562 0L3.66211 0L12.9883-24.4629L45.752-24.4629L55.127 0L57.7637 0L30.6152-70.459L28.125-70.459ZM29.3457-67.1387L29.4434-67.1387L44.873-26.709L13.8672-26.709Z"/>
  </g>
  <line id="Baseline-L" style="fill:none;stroke:#27AAE1;opacity:1;stroke-width:0.5;" x1="263" x2="3036" y1="1556" y2="1556"/>
  <line id="Capline-L" style="fill:none;stroke:#27AAE1;opacity:1;stroke-width:0.5;" x1="263" x2="3036" y1="1485.54" y2="1485.54"/>
  <line id="left-margin" style="fill:none;stroke:#00AEEF;stroke-width:0.5;opacity:1.0;" x1="1375.77" x2="1375.77" y1="1030.79" y2="1150.12"/>
  <line id="right-margin" style="fill:none;stroke:#00AEEF;stroke-width:0.5;opacity:1.0;" x1="1523.92" x2="1523.92" y1="1030.79" y2="1150.12"/>
 </g>
 <g id="Symbols">
  <g id="Black-L" transform="matrix(1 0 0 1 2825.76 1556)">
   <path d="M86.8164 18.7012C94.2383 18.7012 100.537 13.1348 100.537 3.41797L100.537-33.1055C101.611-28.4668 105.225-25.0488 109.961-22.2656L175.488 16.0156C178.809 17.9199 181.982 18.7012 185.449 18.7012C192.871 18.7012 199.17 13.1348 199.17 3.41797L199.17-75.293C199.17-85.1074 193.018-90.625 185.547-90.625C182.031-90.625 178.857-89.7949 175.488-87.8906L109.961-49.6582C105.078-46.7773 101.611-43.6035 100.537-39.0137L100.537-75.293C100.537-85.1074 94.3848-90.625 86.9141-90.625C83.3984-90.625 80.2246-89.7949 76.9043-87.8906L11.377-49.6582C5.46875-46.1914 1.61133-42.2852 1.61133-36.084C1.61133-29.834 5.61523-25.5859 11.377-22.2656L76.9043 16.0156C80.1758 17.9199 83.3496 18.7012 86.8164 18.7012Z"/>
  </g>
  <g id="Heavy-L" transform="matrix(1 0 0 1 2532.25 1556)">
   <path d="M84.8633 17.4805C91.6504 17.4805 97.3633 12.4023 97.3633 3.41797L97.3633-33.0566C98.3398-28.9551 101.465-25.8301 105.811-23.291L171.143 14.8926C174.219 16.6992 177.1 17.4805 180.322 17.4805C187.061 17.4805 192.822 12.4023 192.822 3.41797L192.822-74.9512C192.822-83.9844 187.158-89.0137 180.42-89.0137C177.148-89.0137 174.268-88.1836 171.143-86.4258L105.811-48.1934C101.367-45.6055 98.3398-42.6758 97.3633-38.6719L97.3633-74.9512C97.3633-83.9844 91.748-89.0137 84.9609-89.0137C81.7383-89.0137 78.8086-88.1836 75.6836-86.4258L10.4004-48.1934C4.98047-45.0195 1.61133-41.4062 1.61133-35.8398C1.61133-30.3223 5.07812-26.416 10.4004-23.291L75.6836 14.8926C78.7598 16.6992 81.6895 17.4805 84.8633 17.4805Z"/>
  </g>
  <g id="Bold-L" transform="matrix(1 0 0 1 2239.1 1556)">
   <path d="M82.7148 16.1133C88.7207 16.1133 93.7988 11.6211 93.7988 3.41797L93.7988-32.959C94.6777-29.4922 97.3145-26.7578 101.172-24.4629L166.211 13.6719C169.043 15.2832 171.68 16.1133 174.561 16.1133C180.566 16.1133 185.645 11.6211 185.645 3.41797L185.645-74.5117C185.645-82.7148 180.615-87.207 174.658-87.207C171.68-87.207 169.092-86.377 166.211-84.7656L101.172-46.6309C97.2656-44.2871 94.6777-41.6992 93.7988-38.2812L93.7988-74.5117C93.7988-82.7148 88.7695-87.207 82.7637-87.207C79.834-87.207 77.1973-86.377 74.3652-84.7656L9.32617-46.6309C4.39453-43.7012 1.61133-40.3809 1.61133-35.5957C1.61133-30.8105 4.49219-27.2949 9.32617-24.4629L74.3652 13.6719C77.1484 15.2832 79.7852 16.1133 82.7148 16.1133Z"/>
  </g>
  <g id="Semibold-L" transform="matrix(1 0 0 1 1944.85 1556)">
   <path d="M81.2012 15.1855C86.6699 15.1855 91.3574 11.0352 91.3574 3.41797L91.3574-32.9102C92.1387-29.834 94.4336-27.3438 97.998-25.2441L162.842 12.793C165.479 14.3555 167.92 15.1855 170.605 15.1855C176.074 15.1855 180.762 11.0352 180.762 3.41797L180.762-74.2188C180.762-81.8359 176.123-85.9375 170.654-85.9375C167.92-85.9375 165.527-85.1562 162.842-83.5938L97.998-45.5078C94.3848-43.4082 92.1387-41.0156 91.3574-37.9883L91.3574-74.2188C91.3574-81.8359 86.7188-85.9375 81.25-85.9375C78.5156-85.9375 76.123-85.1562 73.4375-83.5938L8.59375-45.5078C4.00391-42.8223 1.61133-39.6973 1.61133-35.4492C1.61133-31.2012 4.10156-27.9297 8.59375-25.2441L73.4375 12.793C76.0742 14.3555 78.5156 15.1855 81.2012 15.1855Z"/>
  </g>
  <g id="Medium-L" transform="matrix(1 0 0 1 1650 1556)">
   <path d="M80.0781 14.4531C85.1562 14.4531 89.4531 10.5957 89.4531 3.41797L89.4531-32.8613C90.2344-30.127 92.2852-27.832 95.5566-25.8789L160.303 12.1582C162.793 13.623 165.039 14.4531 167.627 14.4531C172.705 14.4531 177.002 10.5957 177.002 3.41797L177.002-74.0234C177.002-81.2012 172.705-85.0098 167.627-85.0098C165.088-85.0098 162.793-84.1797 160.303-82.7148L95.5566-44.6777C92.2363-42.7246 90.2344-40.4785 89.4531-37.793L89.4531-74.0234C89.4531-81.2012 85.1562-85.0098 80.127-85.0098C77.5391-85.0098 75.293-84.1797 72.7539-82.7148L8.00781-44.6777C3.71094-42.1387 1.61133-39.209 1.61133-35.3027C1.61133-31.4453 3.80859-28.3691 8.00781-25.8789L72.7539 12.1582C75.2441 13.623 77.4902 14.4531 80.0781 14.4531Z"/>
  </g>
  <g id="Regular-L" transform="matrix(1 0 0 1 1355.73 1556)">
   <path d="M78.6133 13.5254C83.1543 13.5254 87.0605 10.0586 87.0605 3.41797L87.0605-32.8125C87.6953-30.4688 89.4531-28.418 92.4316-26.6602L156.934 11.3281C159.277 12.6465 161.328 13.5254 163.721 13.5254C168.262 13.5254 172.168 10.0586 172.168 3.41797L172.168-73.7305C172.168-80.3711 168.262-83.7891 163.721-83.7891C161.328-83.7891 159.277-82.959 156.934-81.5918L92.4316-43.6035C89.4531-41.8457 87.6953-39.8438 87.0605-37.5L87.0605-73.7305C87.0605-80.3711 83.1543-83.7891 78.6133-83.7891C76.2207-83.7891 74.1699-82.959 71.8262-81.5918L7.27539-43.6035C3.36914-41.2598 1.61133-38.5254 1.61133-35.1562C1.61133-31.7871 3.36914-29.0039 7.27539-26.6602L71.8262 11.3281C74.1699 12.6465 76.2207 13.5254 78.6133 13.5254Z"/>
  </g>
  <g id="Light-L" transform="matrix(1 0 0 1 1061.02 1556)">
   <path d="M77.4902 12.3535C81.4453 12.3535 85.0586 9.375 85.0586 3.32031L85.0586-32.9102C85.6445-30.9082 87.1582-29.248 89.502-27.8809L154.492 10.4004C156.445 11.5234 158.496 12.3535 160.596 12.3535C164.6 12.3535 168.164 9.375 168.164 3.32031L168.164-73.5352C168.164-79.5898 164.6-82.6172 160.596-82.6172C158.496-82.6172 156.494-81.7383 154.492-80.6152L89.502-42.334C87.1094-40.9668 85.6445-39.3066 85.0586-37.3535L85.0586-73.5352C85.0586-79.5898 81.4453-82.6172 77.4902-82.6172C75.3418-82.6172 73.3887-81.7383 71.3867-80.6152L6.34766-42.334C3.17383-40.4297 1.61133-38.1348 1.61133-35.1562C1.61133-32.1289 3.22266-29.7363 6.34766-27.8809L71.3867 10.4004C73.3398 11.5234 75.3418 12.3535 77.4902 12.3535Z"/>
  </g>
  <g id="Thin-L" transform="matrix(1 0 0 1 766.945 1556)">
   <path d="M75.9766 10.8887C79.248 10.8887 82.4219 8.49609 82.4219 3.125L82.4219-33.1055C82.9102-31.5918 84.082-30.3711 85.6445-29.4434L151.27 9.13086C152.734 10.0098 154.688 10.8887 156.445 10.8887C159.717 10.8887 162.891 8.49609 162.891 3.125L162.891-73.291C162.891-78.6133 159.717-81.0547 156.445-81.0547C154.688-81.0547 152.832-80.1758 151.27-79.2969L85.6445-40.6738C84.0332-39.7461 82.9102-38.623 82.4219-37.1582L82.4219-73.291C82.4219-78.6133 79.248-81.0547 75.9766-81.0547C74.2188-81.0547 72.3145-80.1758 70.752-79.2969L5.12695-40.6738C2.88086-39.3555 1.61133-37.6465 1.61133-35.1074C1.61133-32.5684 2.97852-30.7617 5.12695-29.4434L70.752 9.13086C72.2656 10.0098 74.2188 10.8887 75.9766 10.8887Z"/>
  </g>
  <g id="Ultralight-L" transform="matrix(1 0 0 1 471.576 1556)">
   <path d="M75.2441 10.1074C78.125 10.1074 81.0547 8.00781 81.0547 3.02734L81.0547-33.2031C81.543-31.9336 82.4707-30.957 83.6426-30.2734L149.561 8.49609C150.83 9.22852 152.734 10.1074 154.346 10.1074C157.227 10.1074 160.156 8.00781 160.156 3.02734L160.156-73.1445C160.156-78.125 157.227-80.2246 154.346-80.2246C152.734-80.2246 150.928-79.3457 149.561-78.6133L83.6426-39.8438C82.4219-39.1113 81.4941-38.2324 81.0547-37.0117L81.0547-73.1445C81.0547-78.125 78.125-80.2246 75.2441-80.2246C73.6328-80.2246 71.7773-79.3457 70.459-78.6133L4.54102-39.8438C2.73438-38.7695 1.61133-37.4023 1.61133-35.1074C1.61133-32.8125 2.83203-31.25 4.54102-30.2734L70.459 8.49609C71.7285 9.22852 73.6328 10.1074 75.2441 10.1074Z"/>
  </g>
  <g id="Black-M" transform="matrix(1 0 0 1 2846.75 1126)">
   <path d="M69.2871 7.66602C75.6836 7.66602 81.1523 2.88086 81.1523-5.37109L81.1523-33.7402C82.0801-29.541 85.3516-26.709 89.2578-24.4141L140.625 5.46875C143.311 7.03125 146.045 7.66602 148.926 7.66602C155.371 7.66602 160.84 2.88086 160.84-5.37109L160.84-66.6992C160.84-75 155.469-79.6875 149.072-79.6875C146.143-79.6875 143.359-79.0527 140.625-77.4902L89.2578-47.6562C85.2051-45.2637 82.0312-42.6758 81.1523-38.5742L81.1523-66.6992C81.1523-75 75.8301-79.6875 69.4336-79.6875C66.4551-79.6875 63.6719-79.0527 60.9375-77.4902L9.61914-47.6562C4.78516-44.8242 1.26953-41.6992 1.26953-36.1328C1.26953-30.6152 4.98047-27.0996 9.61914-24.4141L60.9375 5.46875C63.623 7.03125 66.4062 7.66602 69.2871 7.66602Z"/>
  </g>
  <g id="Heavy-M" transform="matrix(1 0 0 1 2553 1126)">
   <path d="M67.4805 6.5918C73.2422 6.5918 78.1738 2.24609 78.1738-5.32227L78.1738-33.6426C79.0039-29.9805 81.8359-27.3438 85.498-25.2441L136.475 4.49219C138.965 5.95703 141.504 6.5918 144.141 6.5918C149.951 6.5918 154.883 2.24609 154.883-5.32227L154.883-66.3574C154.883-73.9746 150.049-78.2227 144.238-78.2227C141.553-78.2227 139.014-77.6367 136.475-76.1719L85.498-46.4355C81.7383-44.2383 79.0039-41.7969 78.1738-38.2324L78.1738-66.3574C78.1738-73.9746 73.3398-78.2227 67.5781-78.2227C64.8438-78.2227 62.3535-77.6367 59.7656-76.1719L8.78906-46.4355C4.29688-43.7988 1.26953-40.8203 1.26953-35.9375C1.26953-31.0547 4.44336-27.7832 8.78906-25.2441L59.7656 4.49219C62.3047 5.95703 64.7949 6.5918 67.4805 6.5918Z"/>
  </g>
  <g id="Bold-M" transform="matrix(1 0 0 1 2259.61 1126)">
   <path d="M65.4297 5.41992C70.5566 5.41992 74.8535 1.5625 74.8535-5.27344L74.8535-33.5449C75.6348-30.4688 77.9785-28.125 81.25-26.1719L131.836 3.41797C134.18 4.78516 136.377 5.41992 138.818 5.41992C143.945 5.41992 148.242 1.5625 148.242-5.27344L148.242-65.918C148.242-72.8027 143.994-76.6113 138.867-76.6113C136.377-76.6113 134.18-75.9766 131.836-74.6094L81.25-45.0195C77.8809-43.0664 75.5859-40.8691 74.8535-37.8418L74.8535-65.918C74.8535-72.8027 70.6055-76.6113 65.4785-76.6113C63.0371-76.6113 60.8398-75.9766 58.4473-74.6094L7.91016-45.0195C3.75977-42.627 1.26953-39.8438 1.26953-35.6934C1.26953-31.4941 3.85742-28.5156 7.91016-26.1719L58.4473 3.41797C60.791 4.78516 62.9883 5.41992 65.4297 5.41992Z"/>
  </g>
  <g id="Semibold-M" transform="matrix(1 0 0 1 1965.19 1126)">
   <path d="M64.0137 4.58984C68.6523 4.58984 72.6074 1.07422 72.6074-5.22461L72.6074-33.4473C73.2422-30.7617 75.293-28.6133 78.3691-26.8066L128.613 2.68555C130.811 3.95508 132.812 4.58984 135.107 4.58984C139.746 4.58984 143.701 1.07422 143.701-5.22461L143.701-65.6738C143.701-72.0215 139.795-75.4883 135.156-75.4883C132.861-75.4883 130.859-74.8535 128.613-73.584L78.3691-44.0918C75.2441-42.2363 73.2422-40.1855 72.6074-37.5488L72.6074-65.6738C72.6074-72.0215 68.7012-75.4883 64.0625-75.4883C61.7676-75.4883 59.7656-74.8535 57.5195-73.584L7.27539-44.0918C3.36914-41.7969 1.26953-39.1602 1.26953-35.498C1.26953-31.8359 3.4668-29.0527 7.27539-26.8066L57.5195 2.68555C59.7168 3.95508 61.7188 4.58984 64.0137 4.58984Z"/>
  </g>
  <g id="Medium-M" transform="matrix(1 0 0 1 1670.21 1126)">
   <path d="M62.9395 4.00391C67.2363 4.00391 70.8496 0.732422 70.8496-5.22461L70.8496-33.3496C71.4844-31.0059 73.2422-29.0039 76.1719-27.2949L126.221 2.09961C128.32 3.36914 130.176 4.00391 132.324 4.00391C136.621 4.00391 140.234 0.732422 140.234-5.22461L140.234-65.4297C140.234-71.3867 136.621-74.6582 132.324-74.6582C130.176-74.6582 128.32-74.0234 126.221-72.7539L76.1719-43.3594C73.2422-41.6504 71.4844-39.6973 70.8496-37.3535L70.8496-65.4297C70.8496-71.3867 67.2852-74.6582 62.9883-74.6582C60.791-74.6582 58.9844-74.0234 56.8359-72.7539L6.78711-43.3594C3.07617-41.1621 1.26953-38.6719 1.26953-35.3516C1.26953-32.0801 3.125-29.4434 6.78711-27.2949L56.8359 2.09961C58.9355 3.36914 60.791 4.00391 62.9395 4.00391Z"/>
  </g>
  <g id="Regular-M" transform="matrix(1 0 0 1 1375.77 1126)">
   <path d="M61.5723 3.17383C65.3809 3.17383 68.6035 0.244141 68.6035-5.17578L68.6035-33.3008C69.1406-31.25 70.6543-29.4922 73.291-27.9297L123.047 1.36719C125 2.53906 126.66 3.17383 128.662 3.17383C132.471 3.17383 135.693 0.244141 135.693-5.17578L135.693-65.1855C135.693-70.6055 132.471-73.5352 128.662-73.5352C126.66-73.5352 125.049-72.9004 123.047-71.7285L73.291-42.4316C70.6055-40.8691 69.1406-39.1113 68.6035-37.0605L68.6035-65.1855C68.6035-70.6055 65.3809-73.5352 61.5723-73.5352C59.5703-73.5352 57.959-72.9004 55.957-71.7285L6.20117-42.4316C2.73438-40.3809 1.26953-37.9883 1.26953-35.2051C1.26953-32.373 2.73438-29.9805 6.20117-27.9297L55.957 1.36719C57.9102 2.53906 59.5703 3.17383 61.5723 3.17383Z"/>
  </g>
  <g id="Light-M" transform="matrix(1 0 0 1 1080.84 1126)">
   <path d="M60.5469 2.14844C63.8672 2.14844 66.7969-0.341797 66.7969-5.32227L66.7969-33.3984C67.2852-31.6895 68.5547-30.2246 70.6543-29.0039L120.85 0.537109C122.51 1.51367 124.121 2.14844 125.879 2.14844C129.199 2.14844 132.129-0.341797 132.129-5.32227L132.129-64.9902C132.129-69.9707 129.199-72.4609 125.879-72.4609C124.121-72.4609 122.559-71.8262 120.85-70.8496L70.6543-41.3086C68.5547-40.0391 67.2852-38.623 66.7969-36.9629L66.7969-64.9902C66.7969-69.9707 63.8672-72.4609 60.5469-72.4609C58.7891-72.4609 57.2266-71.8262 55.5176-70.8496L5.37109-41.3086C2.53906-39.6484 1.26953-37.6465 1.26953-35.1562C1.26953-32.666 2.58789-30.6152 5.37109-29.0039L55.5176 0.537109C57.1777 1.51367 58.7891 2.14844 60.5469 2.14844Z"/>
  </g>
  <g id="Thin-M" transform="matrix(1 0 0 1 786.5 1126)">
   <path d="M59.2285 0.830078C61.9141 0.830078 64.4531-1.17188 64.4531-5.46875L64.4531-33.5449C64.8438-32.2754 65.8203-31.2012 67.1875-30.4199L117.92-0.585938C119.189 0.146484 120.703 0.830078 122.168 0.830078C124.854 0.830078 127.393-1.17188 127.393-5.46875L127.393-64.7949C127.393-69.0918 124.854-71.0938 122.168-71.0938C120.703-71.0938 119.238-70.4102 117.92-69.6777L67.1875-39.8438C65.7715-38.9648 64.8438-37.9883 64.4531-36.7676L64.4531-64.7949C64.4531-69.0918 61.9141-71.0938 59.2285-71.0938C57.7637-71.0938 56.2988-70.4102 54.9805-69.6777L4.24805-39.8438C2.29492-38.6719 1.26953-37.207 1.26953-35.1562C1.26953-33.0566 2.34375-31.543 4.24805-30.4199L54.9805-0.585938C56.25 0.146484 57.7637 0.830078 59.2285 0.830078Z"/>
  </g>
  <g id="Ultralight-M" transform="matrix(1 0 0 1 491.01 1126)">
   <path d="M58.5449 0.146484C60.8887 0.146484 63.2324-1.5625 63.2324-5.51758L63.2324-33.6426C63.623-32.5684 64.4043-31.7383 65.4297-31.1523L116.406-1.17188C117.48-0.537109 118.945 0.146484 120.264 0.146484C122.607 0.146484 124.951-1.5625 124.951-5.51758L124.951-64.6484C124.951-68.6523 122.607-70.3613 120.264-70.3613C118.945-70.3613 117.529-69.6777 116.406-69.043L65.4297-39.0625C64.3555-38.4277 63.5742-37.6953 63.2324-36.6699L63.2324-64.6484C63.2324-68.6523 60.8887-70.3613 58.5449-70.3613C57.2266-70.3613 55.8105-69.6777 54.6875-69.043L3.71094-39.0625C2.14844-38.1348 1.26953-37.0117 1.26953-35.1562C1.26953-33.3008 2.24609-31.9824 3.71094-31.1523L54.6875-1.17188C55.7617-0.537109 57.2266 0.146484 58.5449 0.146484Z"/>
  </g>
  <g id="Black-S" transform="matrix(1 0 0 1 2865.72 696)">
   <path d="M54.1504-1.70898C59.1309-1.70898 63.3789-5.41992 63.3789-11.8164L63.3789-34.082C64.0625-30.8105 66.6016-28.5645 69.6777-26.8066L109.863-3.41797C111.963-2.19727 114.111-1.70898 116.357-1.70898C121.338-1.70898 125.586-5.41992 125.586-11.8164L125.586-59.8633C125.586-66.3086 121.436-69.9707 116.455-69.9707C114.16-69.9707 112.012-69.4824 109.863-68.2617L69.6777-44.873C66.5039-43.0176 64.0625-41.0156 63.3789-37.8418L63.3789-59.8633C63.3789-66.3086 59.2285-69.9707 54.248-69.9707C51.9531-69.9707 49.8047-69.4824 47.6562-68.2617L7.4707-44.873C3.71094-42.6758 0.976562-40.2344 0.976562-35.9375C0.976562-31.6406 3.85742-28.9062 7.4707-26.8066L47.6562-3.41797C49.7559-2.19727 51.9043-1.70898 54.1504-1.70898Z"/>
  </g>
  <g id="Heavy-S" transform="matrix(1 0 0 1 2571.09 696)">
   <path d="M52.8809-2.39258C57.4219-2.39258 61.3281-5.81055 61.3281-11.7676L61.3281-33.9844C61.9629-31.1035 64.1602-29.0039 67.0898-27.2949L106.934-4.05273C108.936-2.88086 110.889-2.39258 112.988-2.39258C117.578-2.39258 121.436-5.81055 121.436-11.7676L121.436-59.6191C121.436-65.5762 117.627-68.9941 113.086-68.9941C110.938-68.9941 108.984-68.5059 106.934-67.334L67.0898-44.043C64.1113-42.334 61.9629-40.3809 61.3281-37.5488L61.3281-59.6191C61.3281-65.5762 57.5195-68.9941 52.9297-68.9941C50.7812-68.9941 48.8281-68.5059 46.7773-67.334L6.93359-44.043C3.36914-41.9434 0.976562-39.5996 0.976562-35.7422C0.976562-31.9336 3.4668-29.3457 6.93359-27.2949L46.7773-4.05273C48.8281-2.88086 50.7812-2.39258 52.8809-2.39258Z"/>
  </g>
  <g id="Bold-S" transform="matrix(1 0 0 1 2276.7 696)">
   <path d="M51.416-3.17383C55.5664-3.17383 58.9844-6.25 58.9844-11.7188L58.9844-33.8867C59.5703-31.3965 61.4746-29.4922 64.1602-27.8809L103.662-4.78516C105.566-3.66211 107.275-3.17383 109.277-3.17383C113.379-3.17383 116.797-6.25 116.797-11.7188L116.797-59.3262C116.797-64.7949 113.428-67.8711 109.326-67.8711C107.324-67.8711 105.615-67.3828 103.662-66.2598L64.1602-43.1641C61.4258-41.5039 59.5703-39.6973 58.9844-37.3047L58.9844-59.3262C58.9844-64.7949 55.6152-67.8711 51.4648-67.8711C49.5117-67.8711 47.7539-67.3828 45.8496-66.2598L6.34766-43.1641C2.97852-41.1621 0.976562-38.8672 0.976562-35.5469C0.976562-32.2266 3.02734-29.834 6.34766-27.8809L45.8496-4.78516C47.7539-3.66211 49.4629-3.17383 51.416-3.17383Z"/>
  </g>
  <g id="Semibold-S" transform="matrix(1 0 0 1 1981.57 696)">
   <path d="M50.4395-3.71094C54.248-3.71094 57.373-6.5918 57.373-11.7188L57.373-33.7891C57.959-31.5918 59.5703-29.834 62.1582-28.2715L101.416-5.27344C103.223-4.19922 104.834-3.71094 106.689-3.71094C110.449-3.71094 113.623-6.5918 113.623-11.7188L113.623-59.1309C113.623-64.2578 110.498-67.0898 106.689-67.0898C104.834-67.0898 103.271-66.6016 101.416-65.5273L62.1582-42.5293C59.5703-40.9668 57.9102-39.2578 57.373-37.1094L57.373-59.1309C57.373-64.2578 54.2969-67.0898 50.4883-67.0898C48.584-67.0898 47.0215-66.6016 45.166-65.5273L5.95703-42.5293C2.68555-40.5762 0.976562-38.3789 0.976562-35.4492C0.976562-32.4707 2.73438-30.1758 5.95703-28.2715L45.166-5.27344C47.0215-4.19922 48.584-3.71094 50.4395-3.71094Z"/>
  </g>
  <g id="Medium-S" transform="matrix(1 0 0 1 1686.08 696)">
   <path d="M49.707-4.10156C53.2715-4.10156 56.2012-6.83594 56.2012-11.6699L56.2012-33.7402C56.6895-31.7383 58.1543-30.0781 60.6445-28.5645L99.707-5.66406C101.465-4.58984 102.93-4.10156 104.688-4.10156C108.252-4.10156 111.182-6.83594 111.182-11.6699L111.182-58.9844C111.182-63.8184 108.301-66.5039 104.736-66.5039C102.93-66.5039 101.465-66.0156 99.707-64.9902L60.6445-42.041C58.1543-40.5762 56.6895-38.916 56.2012-36.9141L56.2012-58.9844C56.2012-63.8184 53.2715-66.5039 49.707-66.5039C47.9492-66.5039 46.4844-66.0156 44.6777-64.9902L5.66406-42.041C2.49023-40.1855 0.976562-38.0371 0.976562-35.3516C0.976562-32.6172 2.53906-30.4199 5.66406-28.5645L44.6777-5.66406C46.4844-4.58984 47.9004-4.10156 49.707-4.10156Z"/>
  </g>
  <g id="Regular-S" transform="matrix(1 0 0 1 1390.93 696)">
   <path d="M48.7305-4.63867C51.9531-4.63867 54.5898-7.12891 54.5898-11.6211L54.5898-33.6426C55.0781-31.9336 56.3477-30.3711 58.6914-28.9551L97.4609-6.15234C99.1699-5.12695 100.488-4.63867 102.148-4.63867C105.42-4.63867 108.057-7.12891 108.057-11.6211L108.057-58.7402C108.057-63.2812 105.42-65.7715 102.148-65.7715C100.488-65.7715 99.1699-65.2832 97.4609-64.2578L58.6914-41.4062C56.3477-40.0391 55.0781-38.4766 54.5898-36.7676L54.5898-58.7402C54.5898-63.2812 51.9531-65.7715 48.7305-65.7715C47.0703-65.7715 45.752-65.2832 44.043-64.2578L5.22461-41.4062C2.19727-39.6484 0.976562-37.5488 0.976562-35.2051C0.976562-32.8613 2.19727-30.7617 5.22461-28.9551L44.043-6.15234C45.752-5.12695 47.0703-4.63867 48.7305-4.63867Z"/>
  </g>
  <g id="Light-S" transform="matrix(1 0 0 1 1095.81 696)">
   <path d="M47.8027-5.56641C50.6348-5.56641 53.0273-7.66602 53.0273-11.7188L53.0273-33.7402C53.418-32.2754 54.4922-31.0059 56.3477-29.9316L95.5078-6.88477C96.9238-6.05469 98.1934-5.56641 99.6582-5.56641C102.49-5.56641 104.883-7.66602 104.883-11.7188L104.883-58.5938C104.883-62.6953 102.49-64.7949 99.6582-64.7949C98.1934-64.7949 96.9727-64.3066 95.5078-63.4766L56.3477-40.4297C54.4922-39.3066 53.418-38.0859 53.0273-36.6211L53.0273-58.5938C53.0273-62.6953 50.6348-64.7949 47.8027-64.7949C46.3379-64.7949 45.1172-64.3066 43.6523-63.4766L4.49219-40.4297C2.05078-38.9648 0.976562-37.2559 0.976562-35.2051C0.976562-33.1055 2.05078-31.3477 4.49219-29.9316L43.6523-6.88477C45.0684-6.05469 46.3379-5.56641 47.8027-5.56641Z"/>
  </g>
  <g id="Thin-S" transform="matrix(1 0 0 1 801.198 696)">
   <path d="M46.6309-6.73828C48.877-6.73828 50.9277-8.39844 50.9277-11.8652L50.9277-33.8867C51.2695-32.8125 52.0996-31.8848 53.3203-31.2012L92.9199-7.86133C93.9941-7.22656 95.2148-6.73828 96.3867-6.73828C98.6328-6.73828 100.684-8.39844 100.684-11.8652L100.684-58.4473C100.684-61.9141 98.6328-63.5742 96.3867-63.5742C95.2148-63.5742 94.043-63.0371 92.9199-62.4512L53.3203-39.1113C52.0508-38.3789 51.2695-37.5488 50.9277-36.4746L50.9277-58.4473C50.9277-61.9141 48.877-63.5742 46.6309-63.5742C45.459-63.5742 44.2871-63.0371 43.1641-62.4512L3.56445-39.1113C1.85547-38.0859 0.976562-36.8652 0.976562-35.1562C0.976562-33.4473 1.9043-32.1777 3.56445-31.2012L43.1641-7.86133C44.2383-7.22656 45.459-6.73828 46.6309-6.73828Z"/>
  </g>
  <g id="Ultralight-S" transform="matrix(1 0 0 1 505.561 696)">
   <path d="M46.0449-7.32422C47.9492-7.32422 49.8535-8.74023 49.8535-11.9629L49.8535-33.9355C50.1465-33.0566 50.8301-32.373 51.709-31.8359L91.6016-8.39844C92.4805-7.86133 93.6523-7.32422 94.7266-7.32422C96.6309-7.32422 98.5352-8.74023 98.5352-11.9629L98.5352-58.3008C98.5352-61.5234 96.6309-62.9395 94.7266-62.9395C93.6523-62.9395 92.5293-62.4023 91.6016-61.9141L51.709-38.4277C50.8301-37.8906 50.1465-37.2559 49.8535-36.377L49.8535-58.3008C49.8535-61.5234 47.9492-62.9395 46.0449-62.9395C44.9707-62.9395 43.8477-62.4023 42.9199-61.9141L3.02734-38.4277C1.75781-37.6465 0.976562-36.6699 0.976562-35.1562C0.976562-33.6426 1.75781-32.5684 3.02734-31.8359L42.9199-8.39844C43.7988-7.86133 44.9707-7.32422 46.0449-7.32422Z"/>
  </g>
 </g>
</svg>
