<?xml version="1.0" encoding="UTF-8"?>
<!--Generator: Apple Native CoreSVG 149-->
<!DOCTYPE svg
PUBLIC "-//W3C//DTD SVG 1.1//EN"
       "http://www.w3.org/Graphics/SVG/1.1/DTD/svg11.dtd">
<svg version="1.1" xmlns="http://www.w3.org/2000/svg" xmlns:xlink="http://www.w3.org/1999/xlink" width="3300" height="2200">
 <!--glyph: "uni10028C.medium", point size: 100.000000, font version: "Version 16.0d18e1", template writer version: "8"-->
 <g id="Notes">
  <rect height="2200" id="artboard" style="fill:white;opacity:1" width="3300" x="0" y="0"/>
  <line id="" style="fill:none;stroke:black;opacity:1;stroke-width:0.5;" x1="263" x2="3036" y1="292" y2="292"/>
  <text style="stroke:none;fill:black;font-family:-apple-system,&quot;SF Pro Display&quot;,&quot;SF Pro Text&quot;,Helvetica,sans-serif;font-weight:bold;" transform="matrix(1 0 0 1 263 322)">Weight/Scale Variations</text>
  <text style="stroke:none;fill:black;font-family:-apple-system,&quot;SF Pro Display&quot;,&quot;SF Pro Text&quot;,Helvetica,sans-serif;text-anchor:middle;" transform="matrix(1 0 0 1 559.711 322)">Ultralight</text>
  <text style="stroke:none;fill:black;font-family:-apple-system,&quot;SF Pro Display&quot;,&quot;SF Pro Text&quot;,Helvetica,sans-serif;text-anchor:middle;" transform="matrix(1 0 0 1 856.422 322)">Thin</text>
  <text style="stroke:none;fill:black;font-family:-apple-system,&quot;SF Pro Display&quot;,&quot;SF Pro Text&quot;,Helvetica,sans-serif;text-anchor:middle;" transform="matrix(1 0 0 1 1153.13 322)">Light</text>
  <text style="stroke:none;fill:black;font-family:-apple-system,&quot;SF Pro Display&quot;,&quot;SF Pro Text&quot;,Helvetica,sans-serif;text-anchor:middle;" transform="matrix(1 0 0 1 1449.84 322)">Regular</text>
  <text style="stroke:none;fill:black;font-family:-apple-system,&quot;SF Pro Display&quot;,&quot;SF Pro Text&quot;,Helvetica,sans-serif;text-anchor:middle;" transform="matrix(1 0 0 1 1746.56 322)">Medium</text>
  <text style="stroke:none;fill:black;font-family:-apple-system,&quot;SF Pro Display&quot;,&quot;SF Pro Text&quot;,Helvetica,sans-serif;text-anchor:middle;" transform="matrix(1 0 0 1 2043.27 322)">Semibold</text>
  <text style="stroke:none;fill:black;font-family:-apple-system,&quot;SF Pro Display&quot;,&quot;SF Pro Text&quot;,Helvetica,sans-serif;text-anchor:middle;" transform="matrix(1 0 0 1 2339.98 322)">Bold</text>
  <text style="stroke:none;fill:black;font-family:-apple-system,&quot;SF Pro Display&quot;,&quot;SF Pro Text&quot;,Helvetica,sans-serif;text-anchor:middle;" transform="matrix(1 0 0 1 2636.69 322)">Heavy</text>
  <text style="stroke:none;fill:black;font-family:-apple-system,&quot;SF Pro Display&quot;,&quot;SF Pro Text&quot;,Helvetica,sans-serif;text-anchor:middle;" transform="matrix(1 0 0 1 2933.4 322)">Black</text>
  <line id="" style="fill:none;stroke:black;opacity:1;stroke-width:0.5;" x1="263" x2="3036" y1="1903" y2="1903"/>
  <g id="" transform="matrix(1 0 0 1 263 1933)">
   <path d="M9.24805 0.830078C13.5547 0.830078 17.1387-2.74414 17.1387-7.05078C17.1387-11.3574 13.5449-14.9316 9.23828-14.9316C4.94141-14.9316 1.36719-11.3574 1.36719-7.05078C1.36719-2.74414 4.95117 0.830078 9.24805 0.830078ZM9.24805-0.654297C5.70312-0.654297 2.87109-3.49609 2.87109-7.05078C2.87109-10.6055 5.69336-13.4473 9.23828-13.4473C12.793-13.4473 15.6348-10.6055 15.6445-7.05078C15.6543-3.49609 12.8027-0.654297 9.24805-0.654297ZM6.39648-6.31836L8.50586-6.31836L8.50586-4.19922C8.50586-3.75977 8.79883-3.45703 9.22852-3.45703C9.67773-3.45703 9.9707-3.75977 9.9707-4.19922L9.9707-6.31836L12.0996-6.31836C12.5391-6.31836 12.8418-6.61133 12.8418-7.04102C12.8418-7.48047 12.5391-7.7832 12.0996-7.7832L9.9707-7.7832L9.9707-9.89258C9.9707-10.3418 9.67773-10.6445 9.22852-10.6445C8.79883-10.6445 8.50586-10.3418 8.50586-9.89258L8.50586-7.7832L6.39648-7.7832C5.94727-7.7832 5.64453-7.48047 5.64453-7.04102C5.64453-6.61133 5.94727-6.31836 6.39648-6.31836Z"/>
  </g>
  <g id="" transform="matrix(1 0 0 1 281.506 1933)">
   <path d="M11.709 2.91016C17.1582 2.91016 21.6699-1.61133 21.6699-7.05078C21.6699-12.5 17.1484-17.0117 11.6992-17.0117C6.25977-17.0117 1.74805-12.5 1.74805-7.05078C1.74805-1.61133 6.26953 2.91016 11.709 2.91016ZM11.709 1.25C7.09961 1.25 3.41797-2.44141 3.41797-7.05078C3.41797-11.6602 7.08984-15.3516 11.6992-15.3516C16.3086-15.3516 20-11.6602 20.0098-7.05078C20.0195-2.44141 16.3184 1.25 11.709 1.25ZM7.98828-6.23047L10.8789-6.23047L10.8789-3.32031C10.8789-2.83203 11.2109-2.5 11.6895-2.5C12.1777-2.5 12.5195-2.83203 12.5195-3.32031L12.5195-6.23047L15.4297-6.23047C15.918-6.23047 16.25-6.5625 16.25-7.04102C16.25-7.5293 15.918-7.87109 15.4297-7.87109L12.5195-7.87109L12.5195-10.7617C12.5195-11.2695 12.1777-11.6016 11.6895-11.6016C11.2109-11.6016 10.8789-11.2598 10.8789-10.7617L10.8789-7.87109L7.98828-7.87109C7.48047-7.87109 7.14844-7.5293 7.14844-7.04102C7.14844-6.5625 7.49023-6.23047 7.98828-6.23047Z"/>
  </g>
  <g id="" transform="matrix(1 0 0 1 304.924 1933)">
   <path d="M14.9707 5.66406C21.9336 5.66406 27.6953-0.0976562 27.6953-7.05078C27.6953-14.0137 21.9238-19.7754 14.9609-19.7754C8.00781-19.7754 2.25586-14.0137 2.25586-7.05078C2.25586-0.0976562 8.01758 5.66406 14.9707 5.66406ZM14.9707 3.84766C8.93555 3.84766 4.08203-1.01562 4.08203-7.05078C4.08203-13.0957 8.92578-17.9492 14.9609-17.9492C21.0059-17.9492 25.8594-13.0957 25.8691-7.05078C25.8789-1.01562 21.0156 3.84766 14.9707 3.84766ZM10.0586-6.14258L14.0625-6.14258L14.0625-2.12891C14.0625-1.5918 14.4336-1.2207 14.9512-1.2207C15.4883-1.2207 15.8594-1.5918 15.8594-2.12891L15.8594-6.14258L19.8828-6.14258C20.4102-6.14258 20.791-6.51367 20.791-7.03125C20.791-7.56836 20.4199-7.94922 19.8828-7.94922L15.8594-7.94922L15.8594-11.9531C15.8594-12.5098 15.4883-12.8809 14.9512-12.8809C14.4336-12.8809 14.0625-12.5 14.0625-11.9531L14.0625-7.94922L10.0586-7.94922C9.50195-7.94922 9.13086-7.56836 9.13086-7.03125C9.13086-6.51367 9.51172-6.14258 10.0586-6.14258Z"/>
  </g>
  <text style="stroke:none;fill:black;font-family:-apple-system,&quot;SF Pro Display&quot;,&quot;SF Pro Text&quot;,Helvetica,sans-serif;font-weight:bold;" transform="matrix(1 0 0 1 263 1953)">Design Variations</text>
  <text style="stroke:none;fill:black;font-family:-apple-system,&quot;SF Pro Display&quot;,&quot;SF Pro Text&quot;,Helvetica,sans-serif;" transform="matrix(1 0 0 1 263 1971)">Symbols are supported in up to nine weights and three scales.</text>
  <text style="stroke:none;fill:black;font-family:-apple-system,&quot;SF Pro Display&quot;,&quot;SF Pro Text&quot;,Helvetica,sans-serif;" transform="matrix(1 0 0 1 263 1989)">For optimal layout with text and other symbols, vertically align</text>
  <text style="stroke:none;fill:black;font-family:-apple-system,&quot;SF Pro Display&quot;,&quot;SF Pro Text&quot;,Helvetica,sans-serif;" transform="matrix(1 0 0 1 263 2007)">symbols with the adjacent text.</text>
  <line id="" style="fill:none;stroke:#00AEEF;stroke-width:0.5;opacity:1.0;" x1="776" x2="776" y1="1919" y2="1933"/>
  <g id="" transform="matrix(1 0 0 1 776 1933)">
   <path d="M3.31055 0.126953C3.82812 0.126953 4.08203-0.0683594 4.26758-0.605469L5.52734-4.0625L11.2891-4.0625L12.5488-0.605469C12.7344-0.0683594 12.9883 0.126953 13.4961 0.126953C14.0137 0.126953 14.3457-0.185547 14.3457-0.673828C14.3457-0.839844 14.3164-0.986328 14.2383-1.20117L9.6582-13.3887C9.43359-13.9941 9.0332-14.2871 8.4082-14.2871C7.80273-14.2871 7.39258-13.9941 7.17773-13.3984L2.59766-1.19141C2.51953-0.976562 2.49023-0.830078 2.49023-0.664062C2.49023-0.175781 2.80273 0.126953 3.31055 0.126953ZM6.00586-5.53711L8.37891-12.1094L8.42773-12.1094L10.8008-5.53711Z"/>
  </g>
  <line id="" style="fill:none;stroke:#00AEEF;stroke-width:0.5;opacity:1.0;" x1="792.836" x2="792.836" y1="1919" y2="1933"/>
  <text style="stroke:none;fill:black;font-family:-apple-system,&quot;SF Pro Display&quot;,&quot;SF Pro Text&quot;,Helvetica,sans-serif;font-weight:bold;" transform="matrix(1 0 0 1 776 1953)">Margins</text>
  <text style="stroke:none;fill:black;font-family:-apple-system,&quot;SF Pro Display&quot;,&quot;SF Pro Text&quot;,Helvetica,sans-serif;" transform="matrix(1 0 0 1 776 1971)">Leading and trailing margins on the left and right side of each symbol</text>
  <text style="stroke:none;fill:black;font-family:-apple-system,&quot;SF Pro Display&quot;,&quot;SF Pro Text&quot;,Helvetica,sans-serif;" transform="matrix(1 0 0 1 776 1989)">can be adjusted by modifying the x-location of the margin guidelines.</text>
  <text style="stroke:none;fill:black;font-family:-apple-system,&quot;SF Pro Display&quot;,&quot;SF Pro Text&quot;,Helvetica,sans-serif;" transform="matrix(1 0 0 1 776 2007)">Modifications are automatically applied proportionally to all</text>
  <text style="stroke:none;fill:black;font-family:-apple-system,&quot;SF Pro Display&quot;,&quot;SF Pro Text&quot;,Helvetica,sans-serif;" transform="matrix(1 0 0 1 776 2025)">scales and weights.</text>
  <g id="" transform="matrix(1 0 0 1 1289 1933)">
   <path d="M2.8418 1.86523L4.54102 3.57422C5.40039 4.44336 6.38672 4.38477 7.31445 3.35938L17.4902-7.85156C17.7539-7.76367 18.0273-7.7832 18.3398-7.8418L19.4043-8.03711L20.0684-7.36328L20.0293-6.80664C19.9902-6.30859 20.1172-5.92773 20.6055-5.44922L21.3672-4.70703C21.8457-4.22852 22.4609-4.19922 22.9297-4.66797L25.8398-7.58789C26.3086-8.05664 26.2891-8.65234 25.8105-9.13086L25.0391-9.89258C24.5605-10.3711 24.1895-10.5273 23.7109-10.4883L23.1348-10.4395L22.4902-11.0742L22.7344-12.1973C22.8613-12.7637 22.7051-13.2031 22.1191-13.7891L19.9219-15.9766C16.582-19.2969 12.1484-19.2188 9.25781-16.3281C8.83789-15.918 8.80859-15.3418 9.04297-14.9512C9.27734-14.5898 9.73633-14.3555 10.3809-14.5215C11.8457-14.8633 13.3691-14.9219 14.7949-13.9844L14.209-12.5293C14.0137-12.0508 13.9844-11.6504 14.1113-11.2891L3.04688-0.898438C2.06055 0.0195312 1.98242 0.996094 2.8418 1.86523ZM10.752-15.957C13.1836-17.7344 16.4746-17.4316 18.7012-15.2051L21.1328-12.793C21.3672-12.5586 21.4062-12.373 21.3379-12.0312L21.0156-10.5469L22.5195-9.0625L23.5059-9.12109C23.7598-9.13086 23.8379-9.11133 24.0332-8.91602L24.6094-8.33984L22.168-5.89844L21.5918-6.47461C21.3965-6.66992 21.3672-6.74805 21.377-7.01172L21.4453-7.98828L19.9512-9.47266L18.4277-9.21875C18.1055-9.15039 17.959-9.17969 17.7148-9.41406L15.7129-11.416C15.459-11.6504 15.4297-11.8164 15.5859-12.1875L16.4648-14.2773C14.9023-15.7324 12.8711-16.3574 10.8398-15.7617C10.6836-15.7227 10.625-15.8496 10.752-15.957ZM5.27344 2.30469L4.10156 1.14258C3.63281 0.683594 3.74023 0.341797 4.14062-0.0195312L14.9512-10.1953L16.416-8.71094L6.42578 2.27539C6.07422 2.67578 5.74219 2.77344 5.27344 2.30469Z"/>
  </g>
  <text style="stroke:none;fill:black;font-family:-apple-system,&quot;SF Pro Display&quot;,&quot;SF Pro Text&quot;,Helvetica,sans-serif;font-weight:bold;" transform="matrix(1 0 0 1 1289 1953)">Exporting</text>
  <text style="stroke:none;fill:black;font-family:-apple-system,&quot;SF Pro Display&quot;,&quot;SF Pro Text&quot;,Helvetica,sans-serif;" transform="matrix(1 0 0 1 1289 1971)">Symbols should be outlined when exporting to ensure the</text>
  <text style="stroke:none;fill:black;font-family:-apple-system,&quot;SF Pro Display&quot;,&quot;SF Pro Text&quot;,Helvetica,sans-serif;" transform="matrix(1 0 0 1 1289 1989)">design is preserved when submitting to Xcode.</text>
  <text id="template-version" style="stroke:none;fill:black;font-family:-apple-system,&quot;SF Pro Display&quot;,&quot;SF Pro Text&quot;,Helvetica,sans-serif;text-anchor:end;" transform="matrix(1 0 0 1 3036 1933)">Template v.2.0</text>
  <text style="stroke:none;fill:black;font-family:-apple-system,&quot;SF Pro Display&quot;,&quot;SF Pro Text&quot;,Helvetica,sans-serif;text-anchor:end;" transform="matrix(1 0 0 1 3036 1951)">Requires Xcode 12 or greater</text>
  <text style="stroke:none;fill:black;font-family:-apple-system,&quot;SF Pro Display&quot;,&quot;SF Pro Text&quot;,Helvetica,sans-serif;text-anchor:end;" transform="matrix(1 0 0 1 3036 1969)">Generated from forward.fill</text>
  <text style="stroke:none;fill:black;font-family:-apple-system,&quot;SF Pro Display&quot;,&quot;SF Pro Text&quot;,Helvetica,sans-serif;text-anchor:end;" transform="matrix(1 0 0 1 3036 1987)">Typeset at 100 points</text>
  <text style="stroke:none;fill:black;font-family:-apple-system,&quot;SF Pro Display&quot;,&quot;SF Pro Text&quot;,Helvetica,sans-serif;" transform="matrix(1 0 0 1 263 726)">Small</text>
  <text style="stroke:none;fill:black;font-family:-apple-system,&quot;SF Pro Display&quot;,&quot;SF Pro Text&quot;,Helvetica,sans-serif;" transform="matrix(1 0 0 1 263 1156)">Medium</text>
  <text style="stroke:none;fill:black;font-family:-apple-system,&quot;SF Pro Display&quot;,&quot;SF Pro Text&quot;,Helvetica,sans-serif;" transform="matrix(1 0 0 1 263 1586)">Large</text>
 </g>
 <g id="Guides">
  <g id="H-reference" style="fill:#27AAE1;stroke:none;" transform="matrix(1 0 0 1 339 696)">
   <path d="M0.976562 0L3.66211 0L12.9883-24.4629L45.752-24.4629L55.127 0L57.7637 0L30.6152-70.459L28.125-70.459ZM29.3457-67.1387L29.4434-67.1387L44.873-26.709L13.8672-26.709Z"/>
  </g>
  <line id="Baseline-S" style="fill:none;stroke:#27AAE1;opacity:1;stroke-width:0.5;" x1="263" x2="3036" y1="696" y2="696"/>
  <line id="Capline-S" style="fill:none;stroke:#27AAE1;opacity:1;stroke-width:0.5;" x1="263" x2="3036" y1="625.541" y2="625.541"/>
  <g id="H-reference" style="fill:#27AAE1;stroke:none;" transform="matrix(1 0 0 1 339 1126)">
   <path d="M0.976562 0L3.66211 0L12.9883-24.4629L45.752-24.4629L55.127 0L57.7637 0L30.6152-70.459L28.125-70.459ZM29.3457-67.1387L29.4434-67.1387L44.873-26.709L13.8672-26.709Z"/>
  </g>
  <line id="Baseline-M" style="fill:none;stroke:#27AAE1;opacity:1;stroke-width:0.5;" x1="263" x2="3036" y1="1126" y2="1126"/>
  <line id="Capline-M" style="fill:none;stroke:#27AAE1;opacity:1;stroke-width:0.5;" x1="263" x2="3036" y1="1055.54" y2="1055.54"/>
  <g id="H-reference" style="fill:#27AAE1;stroke:none;" transform="matrix(1 0 0 1 339 1556)">
   <path d="M0.976562 0L3.66211 0L12.9883-24.4629L45.752-24.4629L55.127 0L57.7637 0L30.6152-70.459L28.125-70.459ZM29.3457-67.1387L29.4434-67.1387L44.873-26.709L13.8672-26.709Z"/>
  </g>
  <line id="Baseline-L" style="fill:none;stroke:#27AAE1;opacity:1;stroke-width:0.5;" x1="263" x2="3036" y1="1556" y2="1556"/>
  <line id="Capline-L" style="fill:none;stroke:#27AAE1;opacity:1;stroke-width:0.5;" x1="263" x2="3036" y1="1485.54" y2="1485.54"/>
  <line id="left-margin" style="fill:none;stroke:#00AEEF;stroke-width:0.5;opacity:1.0;" x1="1375.77" x2="1375.77" y1="1030.79" y2="1150.12"/>
  <line id="right-margin" style="fill:none;stroke:#00AEEF;stroke-width:0.5;opacity:1.0;" x1="1523.92" x2="1523.92" y1="1030.79" y2="1150.12"/>
 </g>
 <g id="Symbols">
  <g id="Black-L" transform="matrix(1 0 0 1 2825.76 1556)">
   <path d="M29.834 18.7012C33.3008 18.7012 36.4746 17.9199 39.7461 16.0156L105.273-22.2656C110.059-25.0488 113.672-28.4668 114.697-33.1055L114.697 3.41797C114.697 13.1348 120.996 18.7012 128.467 18.7012C131.934 18.7012 135.059 17.9199 138.379 16.0156L203.906-22.2656C209.619-25.5859 213.672-29.834 213.672-36.084C213.672-42.2852 209.814-46.1914 203.906-49.6582L138.379-87.8906C135.01-89.7949 131.836-90.625 128.32-90.625C120.898-90.625 114.697-85.1074 114.697-75.293L114.697-39.0137C113.672-43.6035 110.205-46.7773 105.273-49.6582L39.7461-87.8906C36.377-89.7949 33.252-90.625 29.7363-90.625C22.2656-90.625 16.0645-85.1074 16.0645-75.293L16.0645 3.41797C16.0645 13.1348 22.3633 18.7012 29.834 18.7012Z"/>
  </g>
  <g id="Heavy-L" transform="matrix(1 0 0 1 2532.25 1556)">
   <path d="M28.5645 17.4805C31.7871 17.4805 34.668 16.6992 37.7441 14.8926L103.027-23.291C107.422-25.8301 110.547-28.9551 111.523-33.0566L111.523 3.41797C111.523 12.4023 117.236 17.4805 124.023 17.4805C127.197 17.4805 130.127 16.6992 133.203 14.8926L198.486-23.291C203.809-26.416 207.275-30.3223 207.275-35.8398C207.275-41.4062 203.906-45.0195 198.486-48.1934L133.203-86.4258C130.078-88.1836 127.148-89.0137 123.926-89.0137C117.139-89.0137 111.523-83.9844 111.523-74.9512L111.523-38.6719C110.547-42.6758 107.52-45.6055 103.027-48.1934L37.7441-86.4258C34.6191-88.1836 31.7383-89.0137 28.4668-89.0137C21.7285-89.0137 16.0645-83.9844 16.0645-74.9512L16.0645 3.41797C16.0645 12.4023 21.8262 17.4805 28.5645 17.4805Z"/>
  </g>
  <g id="Bold-L" transform="matrix(1 0 0 1 2239.1 1556)">
   <path d="M27.1973 16.1133C30.0781 16.1133 32.7148 15.2832 35.498 13.6719L100.537-24.4629C104.443-26.7578 107.08-29.4922 107.959-32.959L107.959 3.41797C107.959 11.6211 113.037 16.1133 119.043 16.1133C121.973 16.1133 124.561 15.2832 127.393 13.6719L192.432-24.4629C197.266-27.2949 200.146-30.8105 200.146-35.5957C200.146-40.3809 197.363-43.7012 192.432-46.6309L127.393-84.7656C124.561-86.377 121.924-87.207 118.994-87.207C112.988-87.207 107.959-82.7148 107.959-74.5117L107.959-38.2812C107.08-41.6992 104.492-44.2871 100.537-46.6309L35.498-84.7656C32.666-86.377 30.0781-87.207 27.0996-87.207C21.1426-87.207 16.0645-82.7148 16.0645-74.5117L16.0645 3.41797C16.0645 11.6211 21.1914 16.1133 27.1973 16.1133Z"/>
  </g>
  <g id="Semibold-L" transform="matrix(1 0 0 1 1944.85 1556)">
   <path d="M26.2207 15.1855C28.9062 15.1855 31.3477 14.3555 33.9844 12.793L98.8281-25.2441C102.393-27.3438 104.688-29.834 105.469-32.9102L105.469 3.41797C105.469 11.0352 110.156 15.1855 115.625 15.1855C118.359 15.1855 120.752 14.3555 123.389 12.793L188.232-25.2441C192.725-27.9297 195.215-31.2012 195.215-35.4492C195.215-39.6973 192.822-42.8223 188.232-45.5078L123.389-83.5938C120.703-85.1562 118.311-85.9375 115.576-85.9375C110.107-85.9375 105.469-81.8359 105.469-74.2188L105.469-37.9883C104.688-41.0156 102.441-43.4082 98.8281-45.5078L33.9844-83.5938C31.2988-85.1562 28.9062-85.9375 26.1719-85.9375C20.7031-85.9375 16.0645-81.8359 16.0645-74.2188L16.0645 3.41797C16.0645 11.0352 20.752 15.1855 26.2207 15.1855Z"/>
  </g>
  <g id="Medium-L" transform="matrix(1 0 0 1 1650 1556)">
   <path d="M25.4883 14.4531C28.0273 14.4531 30.3223 13.623 32.8125 12.1582L97.5098-25.8789C100.83-27.832 102.881-30.127 103.613-32.8613L103.613 3.41797C103.613 10.5957 107.959 14.4531 113.037 14.4531C115.576 14.4531 117.871 13.623 120.361 12.1582L185.059-25.8789C189.307-28.3691 191.504-31.4453 191.504-35.3027C191.504-39.209 189.355-42.1387 185.059-44.6777L120.361-82.7148C117.822-84.1797 115.576-85.0098 112.988-85.0098C107.91-85.0098 103.613-81.2012 103.613-74.0234L103.613-37.793C102.881-40.4785 100.879-42.7246 97.5098-44.6777L32.8125-82.7148C30.2734-84.1797 28.0273-85.0098 25.4395-85.0098C20.4102-85.0098 16.0645-81.2012 16.0645-74.0234L16.0645 3.41797C16.0645 10.5957 20.4102 14.4531 25.4883 14.4531Z"/>
  </g>
  <g id="Regular-L" transform="matrix(1 0 0 1 1355.73 1556)">
   <path d="M24.5117 13.5254C26.9043 13.5254 28.9551 12.6465 31.2988 11.3281L95.8496-26.6602C98.7793-28.418 100.537-30.4688 101.172-32.8125L101.172 3.41797C101.172 10.0586 105.078 13.5254 109.619 13.5254C112.012 13.5254 114.111 12.6465 116.406 11.3281L180.957-26.6602C184.863-29.0039 186.621-31.7871 186.621-35.1562C186.621-38.5254 184.863-41.2598 180.957-43.6035L116.406-81.5918C114.062-82.959 112.012-83.7891 109.619-83.7891C105.078-83.7891 101.172-80.3711 101.172-73.7305L101.172-37.5C100.537-39.8438 98.7793-41.8457 95.8496-43.6035L31.2988-81.5918C28.9551-82.959 26.9043-83.7891 24.5117-83.7891C19.9707-83.7891 16.0645-80.3711 16.0645-73.7305L16.0645 3.41797C16.0645 10.0586 19.9707 13.5254 24.5117 13.5254Z"/>
  </g>
  <g id="Light-L" transform="matrix(1 0 0 1 1061.02 1556)">
   <path d="M23.6328 12.3535C25.7812 12.3535 27.7832 11.5234 29.7363 10.4004L94.7754-27.8809C97.1191-29.248 98.584-30.9082 99.2188-32.9102L99.2188 3.32031C99.2188 9.375 102.783 12.3535 106.787 12.3535C108.887 12.3535 110.889 11.5234 112.842 10.4004L177.881-27.8809C181.055-29.7363 182.617-32.1289 182.617-35.1562C182.617-38.1348 181.104-40.4297 177.881-42.334L112.842-80.6152C110.84-81.7383 108.887-82.6172 106.787-82.6172C102.783-82.6172 99.2188-79.5898 99.2188-73.5352L99.2188-37.3535C98.584-39.3066 97.1191-40.9668 94.7754-42.334L29.7363-80.6152C27.7344-81.7383 25.7812-82.6172 23.6328-82.6172C19.6777-82.6172 16.0645-79.5898 16.0645-73.5352L16.0645 3.32031C16.0645 9.375 19.6777 12.3535 23.6328 12.3535Z"/>
  </g>
  <g id="Thin-L" transform="matrix(1 0 0 1 766.945 1556)">
   <path d="M22.5098 10.8887C24.2676 10.8887 26.2207 10.0098 27.7344 9.13086L93.3594-29.4434C94.9219-30.3711 96.0449-31.5918 96.582-33.1055L96.582 3.125C96.582 8.49609 99.707 10.8887 102.979 10.8887C104.736 10.8887 106.689 10.0098 108.203 9.13086L173.828-29.4434C176.025-30.7617 177.344-32.5684 177.344-35.1074C177.344-37.6465 176.074-39.3555 173.828-40.6738L108.203-79.2969C106.641-80.1758 104.736-81.0547 102.979-81.0547C99.707-81.0547 96.582-78.6133 96.582-73.291L96.582-37.1582C96.0449-38.623 94.9219-39.7461 93.3594-40.6738L27.7344-79.2969C26.1719-80.1758 24.2676-81.0547 22.5098-81.0547C19.2383-81.0547 16.0645-78.6133 16.0645-73.291L16.0645 3.125C16.0645 8.49609 19.2383 10.8887 22.5098 10.8887Z"/>
  </g>
  <g id="Ultralight-L" transform="matrix(1 0 0 1 471.576 1556)">
   <path d="M21.9238 10.1074C23.5352 10.1074 25.4395 9.22852 26.6602 8.49609L92.627-30.2734C93.7988-30.957 94.7266-31.9336 95.2148-33.2031L95.2148 3.02734C95.2148 8.00781 98.1445 10.1074 101.025 10.1074C102.637 10.1074 104.541 9.22852 105.811 8.49609L171.729-30.2734C173.438-31.25 174.658-32.8125 174.658-35.1074C174.658-37.4023 173.535-38.7695 171.729-39.8438L105.811-78.6133C104.443-79.3457 102.637-80.2246 101.025-80.2246C98.1445-80.2246 95.2148-78.125 95.2148-73.1445L95.2148-37.0117C94.7266-38.2324 93.8477-39.1113 92.627-39.8438L26.6602-78.6133C25.3418-79.3457 23.5352-80.2246 21.9238-80.2246C19.043-80.2246 16.0645-78.125 16.0645-73.1445L16.0645 3.02734C16.0645 8.00781 19.043 10.1074 21.9238 10.1074Z"/>
  </g>
  <g id="Black-M" transform="matrix(1 0 0 1 2846.75 1126)">
   <path d="M24.3652 7.66602C27.2461 7.66602 29.9805 7.03125 32.666 5.46875L84.0332-24.4141C87.9395-26.709 91.2109-29.541 92.1387-33.7402L92.1387-5.37109C92.1387 2.88086 97.6074 7.66602 104.004 7.66602C106.885 7.66602 109.668 7.03125 112.354 5.46875L163.672-24.4141C168.311-27.0996 172.07-30.6152 172.07-36.1328C172.07-41.6992 168.506-44.8242 163.672-47.6562L112.354-77.4902C109.619-79.0527 106.836-79.6875 103.906-79.6875C97.4609-79.6875 92.1387-75 92.1387-66.6992L92.1387-38.5742C91.2598-42.6758 88.0859-45.2637 84.0332-47.6562L32.666-77.4902C29.9316-79.0527 27.1484-79.6875 24.2188-79.6875C17.8223-79.6875 12.4512-75 12.4512-66.6992L12.4512-5.37109C12.4512 2.88086 17.9199 7.66602 24.3652 7.66602Z"/>
  </g>
  <g id="Heavy-M" transform="matrix(1 0 0 1 2553 1126)">
   <path d="M23.1934 6.5918C25.8789 6.5918 28.3691 5.95703 30.9082 4.49219L81.8848-25.2441C85.498-27.3438 88.3301-29.9805 89.1602-33.6426L89.1602-5.32227C89.1602 2.24609 94.0918 6.5918 99.9023 6.5918C102.588 6.5918 105.078 5.95703 107.617 4.49219L158.545-25.2441C162.939-27.7832 166.113-31.0547 166.113-35.9375C166.113-40.8203 163.086-43.7988 158.545-46.4355L107.617-76.1719C105.029-77.6367 102.539-78.2227 99.8047-78.2227C93.9941-78.2227 89.1602-73.9746 89.1602-66.3574L89.1602-38.2324C88.3301-41.7969 85.5957-44.2383 81.8848-46.4355L30.9082-76.1719C28.3203-77.6367 25.8301-78.2227 23.0957-78.2227C17.2852-78.2227 12.4512-73.9746 12.4512-66.3574L12.4512-5.32227C12.4512 2.24609 17.3828 6.5918 23.1934 6.5918Z"/>
  </g>
  <g id="Bold-M" transform="matrix(1 0 0 1 2259.61 1126)">
   <path d="M21.9238 5.41992C24.3652 5.41992 26.5625 4.78516 28.9062 3.41797L79.4434-26.1719C82.7637-28.125 85.1074-30.4688 85.8398-33.5449L85.8398-5.27344C85.8398 1.5625 90.1855 5.41992 95.3125 5.41992C97.7539 5.41992 99.9512 4.78516 102.295 3.41797L152.832-26.1719C156.885-28.5156 159.473-31.4941 159.473-35.6934C159.473-39.8438 156.982-42.627 152.832-45.0195L102.295-74.6094C99.9023-75.9766 97.7051-76.6113 95.2148-76.6113C90.1367-76.6113 85.8398-72.8027 85.8398-65.918L85.8398-37.8418C85.1074-40.8691 82.8125-43.0664 79.4434-45.0195L28.9062-74.6094C26.5137-75.9766 24.3164-76.6113 21.875-76.6113C16.748-76.6113 12.4512-72.8027 12.4512-65.918L12.4512-5.27344C12.4512 1.5625 16.7969 5.41992 21.9238 5.41992Z"/>
  </g>
  <g id="Semibold-M" transform="matrix(1 0 0 1 1965.19 1126)">
   <path d="M21.0449 4.58984C23.291 4.58984 25.293 3.95508 27.5391 2.68555L77.7832-26.8066C80.8594-28.6133 82.8613-30.7617 83.5449-33.4473L83.5449-5.22461C83.5449 1.07422 87.5 4.58984 92.1387 4.58984C94.3848 4.58984 96.3867 3.95508 98.6328 2.68555L148.877-26.8066C152.686-29.0527 154.883-31.8359 154.883-35.498C154.883-39.1602 152.783-41.7969 148.877-44.0918L98.6328-73.584C96.3867-74.8535 94.3848-75.4883 92.0898-75.4883C87.4512-75.4883 83.5449-72.0215 83.5449-65.6738L83.5449-37.5488C82.9102-40.1855 80.9082-42.2363 77.7832-44.0918L27.5391-73.584C25.293-74.8535 23.291-75.4883 20.9961-75.4883C16.3574-75.4883 12.4512-72.0215 12.4512-65.6738L12.4512-5.22461C12.4512 1.07422 16.4062 4.58984 21.0449 4.58984Z"/>
  </g>
  <g id="Medium-M" transform="matrix(1 0 0 1 1670.21 1126)">
   <path d="M20.3613 4.00391C22.5098 4.00391 24.3652 3.36914 26.4648 2.09961L76.5137-27.2949C79.3945-29.0039 81.2012-31.0059 81.8359-33.3984L81.8359-5.22461C81.8359 0.732422 85.4492 4.00391 89.7461 4.00391C91.8945 4.00391 93.7012 3.36914 95.8496 2.09961L145.898-27.2949C149.561-29.4434 151.416-32.0801 151.416-35.3516C151.416-38.6719 149.609-41.1621 145.898-43.3594L95.8496-72.7539C93.7012-74.0234 91.8457-74.6582 89.6973-74.6582C85.4004-74.6582 81.8359-71.3867 81.8359-65.4297L81.8359-37.3535C81.2012-39.6973 79.4434-41.6504 76.5137-43.3594L26.4648-72.7539C24.3652-74.0234 22.5098-74.6582 20.3613-74.6582C16.0645-74.6582 12.4512-71.3867 12.4512-65.4297L12.4512-5.22461C12.4512 0.732422 16.0645 4.00391 20.3613 4.00391Z"/>
  </g>
  <g id="Regular-M" transform="matrix(1 0 0 1 1375.77 1126)">
   <path d="M19.4824 3.17383C21.4844 3.17383 23.1445 2.53906 25.0977 1.36719L74.8535-27.9297C77.5391-29.4922 79.0039-31.25 79.541-33.3008L79.541-5.17578C79.541 0.244141 82.7637 3.17383 86.5723 3.17383C88.5742 3.17383 90.2344 2.53906 92.1875 1.36719L141.992-27.9297C145.41-29.9805 146.924-32.373 146.924-35.2051C146.924-37.9883 145.41-40.3809 141.992-42.4316L92.1875-71.7285C90.2344-72.9004 88.5742-73.5352 86.5723-73.5352C82.7637-73.5352 79.541-70.6055 79.541-65.1855L79.541-37.0605C79.0039-39.1113 77.5391-40.8691 74.8535-42.4316L25.0977-71.7285C23.0957-72.9004 21.4844-73.5352 19.4824-73.5352C15.6738-73.5352 12.4512-70.6055 12.4512-65.1855L12.4512-5.17578C12.4512 0.244141 15.6738 3.17383 19.4824 3.17383Z"/>
  </g>
  <g id="Light-M" transform="matrix(1 0 0 1 1080.84 1126)">
   <path d="M18.7012 2.14844C20.459 2.14844 22.0703 1.51367 23.7305 0.537109L73.9258-29.0039C76.0254-30.2246 77.2461-31.6895 77.7832-33.3984L77.7832-5.32227C77.7832-0.341797 80.6641 2.14844 84.0332 2.14844C85.791 2.14844 87.3535 1.51367 89.0625 0.537109L139.209-29.0039C141.992-30.6152 143.311-32.666 143.311-35.1562C143.311-37.6465 142.041-39.6484 139.209-41.3086L89.0625-70.8496C87.3535-71.8262 85.791-72.4609 84.0332-72.4609C80.6641-72.4609 77.7832-69.9707 77.7832-64.9902L77.7832-36.9629C77.2949-38.623 76.0254-40.0391 73.9258-41.3086L23.7305-70.8496C22.0215-71.8262 20.459-72.4609 18.7012-72.4609C15.3809-72.4609 12.4512-69.9707 12.4512-64.9902L12.4512-5.32227C12.4512-0.341797 15.3809 2.14844 18.7012 2.14844Z"/>
  </g>
  <g id="Thin-M" transform="matrix(1 0 0 1 786.5 1126)">
   <path d="M17.6758 0.830078C19.1406 0.830078 20.6543 0.146484 21.9238-0.585938L72.6562-30.4199C74.0234-31.2012 75-32.2754 75.3906-33.5449L75.3906-5.46875C75.3906-1.17188 77.9297 0.830078 80.6152 0.830078C82.0801 0.830078 83.5938 0.146484 84.8633-0.585938L135.596-30.4199C137.5-31.543 138.574-33.0566 138.574-35.1562C138.574-37.207 137.549-38.6719 135.596-39.8438L84.8633-69.6777C83.5449-70.4102 82.0801-71.0938 80.6152-71.0938C77.9297-71.0938 75.3906-69.0918 75.3906-64.7949L75.3906-36.7676C75-37.9883 74.0723-38.9648 72.6562-39.8438L21.9238-69.6777C20.6055-70.4102 19.1406-71.0938 17.6758-71.0938C14.9902-71.0938 12.4512-69.0918 12.4512-64.7949L12.4512-5.46875C12.4512-1.17188 14.9902 0.830078 17.6758 0.830078Z"/>
  </g>
  <g id="Ultralight-M" transform="matrix(1 0 0 1 491.01 1126)">
   <path d="M17.1387 0.146484C18.457 0.146484 19.9707-0.537109 20.9961-1.17188L71.9727-31.1523C72.998-31.7383 73.8281-32.5684 74.1699-33.6426L74.1699-5.51758C74.1699-1.5625 76.5625 0.146484 78.9062 0.146484C80.1758 0.146484 81.6895-0.537109 82.7148-1.17188L133.74-31.1523C135.156-31.9824 136.182-33.3008 136.182-35.1562C136.182-37.0117 135.254-38.1348 133.74-39.0625L82.7148-69.043C81.5918-69.6777 80.1758-70.3613 78.9062-70.3613C76.5625-70.3613 74.1699-68.6523 74.1699-64.6484L74.1699-36.6699C73.8281-37.6953 73.0469-38.4277 71.9727-39.0625L20.9961-69.043C19.873-69.6777 18.457-70.3613 17.1387-70.3613C14.7949-70.3613 12.4512-68.6523 12.4512-64.6484L12.4512-5.51758C12.4512-1.5625 14.7949 0.146484 17.1387 0.146484Z"/>
  </g>
  <g id="Black-S" transform="matrix(1 0 0 1 2865.72 696)">
   <path d="M18.9941-1.70898C21.2402-1.70898 23.3887-2.19727 25.4883-3.41797L65.6738-26.8066C68.75-28.5645 71.2891-30.8105 71.9727-34.082L71.9727-11.8164C71.9727-5.41992 76.2207-1.70898 81.2012-1.70898C83.4473-1.70898 85.5957-2.19727 87.6953-3.41797L127.881-26.8066C131.494-28.9062 134.375-31.6406 134.375-35.9375C134.375-40.2344 131.641-42.6758 127.881-44.873L87.6953-68.2617C85.5469-69.4824 83.3984-69.9707 81.1035-69.9707C76.123-69.9707 71.9727-66.3086 71.9727-59.8633L71.9727-37.8418C71.2891-41.0156 68.8477-43.0176 65.6738-44.873L25.4883-68.2617C23.3398-69.4824 21.1914-69.9707 18.8965-69.9707C13.916-69.9707 9.76562-66.3086 9.76562-59.8633L9.76562-11.8164C9.76562-5.41992 14.0137-1.70898 18.9941-1.70898Z"/>
  </g>
  <g id="Heavy-S" transform="matrix(1 0 0 1 2571.09 696)">
   <path d="M18.2129-2.39258C20.3125-2.39258 22.2656-2.88086 24.2676-4.05273L64.1113-27.2949C67.041-29.0039 69.2383-31.1035 69.9219-33.9844L69.9219-11.7676C69.9219-5.81055 73.7793-2.39258 78.3203-2.39258C80.4688-2.39258 82.4219-2.88086 84.4238-4.05273L124.268-27.2949C127.734-29.3457 130.225-31.9336 130.225-35.7422C130.225-39.5996 127.832-41.9434 124.268-44.043L84.4238-67.334C82.373-68.5059 80.4199-68.9941 78.2715-68.9941C73.6816-68.9941 69.9219-65.5762 69.9219-59.6191L69.9219-37.5977C69.2871-40.3809 67.0898-42.334 64.1113-44.043L24.2676-67.334C22.2168-68.5059 20.2637-68.9941 18.1152-68.9941C13.5742-68.9941 9.76562-65.5762 9.76562-59.6191L9.76562-11.7676C9.76562-5.81055 13.623-2.39258 18.2129-2.39258Z"/>
  </g>
  <g id="Bold-S" transform="matrix(1 0 0 1 2276.7 696)">
   <path d="M17.334-3.17383C19.2871-3.17383 20.9961-3.66211 22.9004-4.78516L62.4023-27.8809C65.1367-29.4922 66.9922-31.3965 67.5781-33.8867L67.5781-11.7188C67.5781-6.25 71.0449-3.17383 75.1465-3.17383C77.0996-3.17383 78.8086-3.66211 80.7129-4.78516L120.215-27.8809C123.535-29.834 125.586-32.2266 125.586-35.5469C125.586-38.8672 123.633-41.1621 120.215-43.1641L80.7129-66.2598C78.8086-67.3828 77.0996-67.8711 75.0977-67.8711C70.9961-67.8711 67.5781-64.7949 67.5781-59.3262L67.5781-37.3047C66.9922-39.6973 65.1855-41.5039 62.4023-43.1641L22.9004-66.2598C20.9961-67.3828 19.2383-67.8711 17.2852-67.8711C13.1836-67.8711 9.76562-64.7949 9.76562-59.3262L9.76562-11.7188C9.76562-6.25 13.2324-3.17383 17.334-3.17383Z"/>
  </g>
  <g id="Semibold-S" transform="matrix(1 0 0 1 1981.57 696)">
   <path d="M16.6992-3.71094C18.5547-3.71094 20.166-4.19922 21.9727-5.27344L61.2305-28.2715C63.8184-29.834 65.4297-31.5918 65.9668-33.7891L65.9668-11.7188C65.9668-6.5918 69.1406-3.71094 72.9492-3.71094C74.8047-3.71094 76.3672-4.19922 78.2227-5.27344L117.432-28.2715C120.654-30.1758 122.412-32.4707 122.412-35.4492C122.412-38.3789 120.703-40.5762 117.432-42.5293L78.2227-65.5273C76.3672-66.6016 74.7559-67.0898 72.9004-67.0898C69.0918-67.0898 65.9668-64.2578 65.9668-59.1309L65.9668-37.1094C65.4785-39.2578 63.8184-40.9668 61.2305-42.5293L21.9727-65.5273C20.1172-66.6016 18.5547-67.0898 16.6992-67.0898C12.8906-67.0898 9.76562-64.2578 9.76562-59.1309L9.76562-11.7188C9.76562-6.5918 12.9395-3.71094 16.6992-3.71094Z"/>
  </g>
  <g id="Medium-S" transform="matrix(1 0 0 1 1686.08 696)">
   <path d="M16.2598-4.10156C18.0176-4.10156 19.4824-4.58984 21.2891-5.66406L60.3027-28.5645C62.793-30.0781 64.2578-31.7383 64.7949-33.7402L64.7949-11.6699C64.7949-6.83594 67.7246-4.10156 71.2891-4.10156C73.0469-4.10156 74.5117-4.58984 76.2695-5.66406L115.332-28.5645C118.457-30.4199 119.971-32.6172 119.971-35.3516C119.971-38.0371 118.457-40.1855 115.332-42.041L76.2695-64.9902C74.5117-66.0156 73.0469-66.5039 71.2402-66.5039C67.6758-66.5039 64.7949-63.8184 64.7949-58.9844L64.7949-36.9629C64.2578-38.916 62.793-40.5762 60.3027-42.041L21.2891-64.9902C19.4824-66.0156 18.0176-66.5039 16.2109-66.5039C12.6953-66.5039 9.76562-63.8184 9.76562-58.9844L9.76562-11.6699C9.76562-6.83594 12.6953-4.10156 16.2598-4.10156Z"/>
  </g>
  <g id="Regular-S" transform="matrix(1 0 0 1 1390.93 696)">
   <path d="M15.6738-4.63867C17.334-4.63867 18.6523-5.12695 20.3613-6.15234L59.1309-28.9551C61.4746-30.3711 62.7441-31.9336 63.1836-33.6426L63.1836-11.6211C63.1836-7.12891 65.8203-4.63867 69.0918-4.63867C70.752-4.63867 72.0703-5.12695 73.7793-6.15234L112.549-28.9551C115.576-30.7617 116.846-32.8613 116.846-35.2051C116.846-37.5488 115.576-39.6484 112.549-41.4062L73.7793-64.2578C72.0703-65.2832 70.752-65.7715 69.0918-65.7715C65.8203-65.7715 63.1836-63.2812 63.1836-58.7402L63.1836-36.7676C62.7441-38.4766 61.4746-40.0391 59.1309-41.4062L20.3613-64.2578C18.6523-65.2832 17.334-65.7715 15.6738-65.7715C12.4023-65.7715 9.76562-63.2812 9.76562-58.7402L9.76562-11.6211C9.76562-7.12891 12.4023-4.63867 15.6738-4.63867Z"/>
  </g>
  <g id="Light-S" transform="matrix(1 0 0 1 1095.81 696)">
   <path d="M14.9414-5.56641C16.4062-5.56641 17.6758-6.05469 19.1406-6.88477L58.3008-29.9316C60.1074-31.0059 61.1816-32.2754 61.6211-33.7402L61.6211-11.7188C61.6211-7.66602 64.0137-5.56641 66.7969-5.56641C68.2617-5.56641 69.5312-6.05469 70.9961-6.88477L110.107-29.9316C112.549-31.3477 113.672-33.1055 113.672-35.2051C113.672-37.2559 112.598-38.9648 110.107-40.4297L70.9961-63.4766C69.5312-64.3066 68.2617-64.7949 66.7969-64.7949C64.0137-64.7949 61.6211-62.6953 61.6211-58.5938L61.6211-36.6211C61.1816-38.0859 60.1562-39.3066 58.3008-40.4297L19.1406-63.4766C17.6758-64.3066 16.4062-64.7949 14.9414-64.7949C12.1582-64.7949 9.76562-62.6953 9.76562-58.5938L9.76562-11.7188C9.76562-7.66602 12.1582-5.56641 14.9414-5.56641Z"/>
  </g>
  <g id="Thin-S" transform="matrix(1 0 0 1 801.198 696)">
   <path d="M14.0625-6.73828C15.2344-6.73828 16.4551-7.22656 17.5293-7.86133L57.1777-31.2012C58.3496-31.8848 59.1797-32.8125 59.5215-33.8867L59.5215-11.8652C59.5215-8.39844 61.5723-6.73828 63.8184-6.73828C64.9902-6.73828 66.2109-7.22656 67.2852-7.86133L106.934-31.2012C108.594-32.1777 109.473-33.4473 109.473-35.1562C109.473-36.8652 108.594-38.0859 106.934-39.1113L67.2852-62.4512C66.1621-63.0371 64.9902-63.5742 63.8184-63.5742C61.5723-63.5742 59.5215-61.9141 59.5215-58.4473L59.5215-36.4746C59.1797-37.5488 58.3984-38.3789 57.1777-39.1113L17.5293-62.4512C16.4062-63.0371 15.2344-63.5742 14.0625-63.5742C11.8164-63.5742 9.76562-61.9141 9.76562-58.4473L9.76562-11.8652C9.76562-8.39844 11.8164-6.73828 14.0625-6.73828Z"/>
  </g>
  <g id="Ultralight-S" transform="matrix(1 0 0 1 505.561 696)">
   <path d="M13.5742-7.32422C14.6484-7.32422 15.8203-7.86133 16.6992-8.39844L56.5918-31.8359C57.4707-32.373 58.1543-33.0566 58.4473-33.9355L58.4473-11.9629C58.4473-8.74023 60.3516-7.32422 62.2559-7.32422C63.3301-7.32422 64.502-7.86133 65.3809-8.39844L105.273-31.8359C106.543-32.5684 107.324-33.6426 107.324-35.1562C107.324-36.6699 106.592-37.6465 105.273-38.4277L65.3809-61.9141C64.4531-62.4023 63.3301-62.9395 62.2559-62.9395C60.3516-62.9395 58.4473-61.5234 58.4473-58.3008L58.4473-36.377C58.1543-37.2559 57.5195-37.8906 56.5918-38.4277L16.6992-61.9141C15.7715-62.4023 14.6484-62.9395 13.5742-62.9395C11.6699-62.9395 9.76562-61.5234 9.76562-58.3008L9.76562-11.9629C9.76562-8.74023 11.6699-7.32422 13.5742-7.32422Z"/>
  </g>
 </g>
</svg>
